<svg width="36" height="36" viewBox="0 0 36 36" fill="none" xmlns="http://www.w3.org/2000/svg">
<rect width="36" height="36" rx="18" fill="#D5D5F2"/>
<path d="M13.957 8.15625C13.351 8.15625 12.7697 8.39701 12.3412 8.82556C11.9126 9.25411 11.6719 9.83535 11.6719 10.4414V25.5586C11.6719 26.1647 11.9126 26.7459 12.3412 27.1744C12.7697 27.603 13.351 27.8438 13.957 27.8438H22.043C22.649 27.8438 23.2303 27.603 23.6588 27.1744C24.0874 26.7459 24.3281 26.1647 24.3281 25.5586V10.4414C24.3281 9.83535 24.0874 9.25411 23.6588 8.82556C23.2303 8.39701 22.649 8.15625 22.043 8.15625H13.957ZM16.5938 23.625H19.4062C19.5927 23.625 19.7716 23.6991 19.9034 23.8309C20.0353 23.9628 20.1094 24.1416 20.1094 24.3281C20.1094 24.5146 20.0353 24.6934 19.9034 24.8253C19.7716 24.9572 19.5927 25.0312 19.4062 25.0312H16.5938C16.4073 25.0312 16.2284 24.9572 16.0966 24.8253C15.9647 24.6934 15.8906 24.5146 15.8906 24.3281C15.8906 24.1416 15.9647 23.9628 16.0966 23.8309C16.2284 23.6991 16.4073 23.625 16.5938 23.625Z" fill="#000062"/>
</svg>
