<svg width="176" height="60" viewBox="0 0 176 60" fill="none" xmlns="http://www.w3.org/2000/svg">
<g clip-path="url(#clip0_1998_30058)">
<path fill-rule="evenodd" clip-rule="evenodd" d="M7.98916 0.00195312C3.85274 0.00195312 0.499512 3.35519 0.499512 7.49161V51.8054C0.499512 55.9418 3.85274 59.2951 7.98917 59.2951H167.768C171.905 59.2951 175.258 55.9418 175.258 51.8054V7.49161C175.258 3.35519 171.905 0.00195312 167.768 0.00195312H7.98916Z" fill="black"/>
<path d="M77.4067 30.5225C78.8895 30.5225 80.1274 31.1082 81.1177 32.2812C82.1105 33.4556 82.606 35.0002 82.606 36.915C82.6058 39.0537 82.0277 40.7443 80.8726 41.9854C79.8378 43.0902 78.5529 43.6426 77.019 43.6426C75.3635 43.6426 74.1741 43.0472 73.4497 41.8574H73.397V48.4824H70.604V34.9209C70.604 33.5762 70.5686 32.1957 70.5005 30.7803H72.9565L73.1128 32.7744H73.1655C74.0969 31.2724 75.51 30.5225 77.4067 30.5225ZM91.8657 30.5176C93.3472 30.5176 94.5857 31.1033 95.5786 32.2764C96.5673 33.4506 97.0639 34.9946 97.064 36.9092C97.0639 39.0481 96.4862 40.7393 95.3296 41.9805C94.2961 43.0853 93.0109 43.6377 91.4771 43.6377C89.8215 43.6377 88.6318 43.0423 87.9087 41.8525H87.856V48.4775H85.064V34.916C85.064 33.5713 85.0286 32.1908 84.9604 30.7754H87.4165L87.5718 32.7686H87.6245C88.5545 31.2668 89.9679 30.5177 91.8657 30.5176ZM130.298 30.5166C132.143 30.5166 133.628 31.129 134.748 32.3545C135.819 33.5432 136.353 35.0783 136.353 36.959C136.353 38.8921 135.801 40.4795 134.698 41.7207C133.541 42.9986 132.005 43.6357 130.091 43.6357C128.247 43.6356 126.779 43.0229 125.684 41.7988C124.589 40.5747 124.042 39.0294 124.042 37.167C124.042 35.2182 124.605 33.622 125.735 32.3809C126.863 31.1384 128.385 30.5167 130.298 30.5166ZM119.385 30.7715H122.463V32.8711H119.385V38.9775C119.385 40.5305 119.928 41.3066 121.015 41.3066C121.514 41.3066 121.928 41.2632 122.255 41.1768L122.333 43.2988C121.782 43.5046 121.058 43.6084 120.161 43.6084C119.058 43.6084 118.196 43.271 117.574 42.5986C116.954 41.9249 116.642 40.7952 116.642 39.208V32.8682H114.808V30.7715H116.642V28.4678L119.385 27.6396V30.7715ZM108.603 25.6504C110.189 25.6504 111.506 25.9269 112.558 26.4785L111.86 28.7568C110.878 28.2222 109.767 27.9541 108.524 27.9541C107.542 27.9541 106.774 28.1974 106.224 28.6797C105.759 29.1109 105.526 29.6362 105.526 30.2588C105.526 30.9482 105.791 31.5186 106.326 31.9668C106.791 32.381 107.636 32.8289 108.862 33.3125C110.362 33.9167 111.464 34.6236 112.172 35.4336C112.878 36.2409 113.231 37.2514 113.231 38.457C113.231 39.9407 112.716 41.1482 111.682 42.0801C110.547 43.0983 108.966 43.6064 106.934 43.6064C105.058 43.6064 103.554 43.2453 102.416 42.5205L103.063 40.1914C104.289 40.9332 105.634 41.3057 107.1 41.3057C108.152 41.3057 108.971 41.0663 109.559 40.5918C110.144 40.1174 110.436 39.4806 110.436 38.6865C110.436 37.9788 110.196 37.3821 109.712 36.8984C109.232 36.4148 108.428 35.9653 107.307 35.5498C104.255 34.4109 102.73 32.7427 102.73 30.5488C102.73 29.1151 103.265 27.9392 104.334 27.0244C105.401 26.1082 106.824 25.6504 108.603 25.6504ZM152.7 30.4893C154.511 30.4894 155.883 31.1622 156.814 32.5068C157.551 33.575 157.922 34.8961 157.922 36.4648C157.922 36.9655 157.889 37.3877 157.82 37.7324H149.442C149.475 38.9747 149.879 39.9248 150.657 40.5801C151.363 41.1659 152.276 41.4599 153.397 41.46C154.637 41.46 155.77 41.2624 156.788 40.8652L157.225 42.8047C156.036 43.3237 154.632 43.582 153.011 43.582C151.062 43.582 149.532 43.0081 148.418 41.8613C147.308 40.7145 146.751 39.1741 146.75 37.2422C146.75 35.3458 147.268 33.7664 148.304 32.5068C149.389 31.1621 150.855 30.4893 152.7 30.4893ZM68.1724 43.3594H65.1978L63.5679 38.2363H57.9038L56.3521 43.3594H53.4556L59.0669 25.917H62.5337L68.1724 43.3594ZM144.735 30.5137C144.993 30.5137 145.226 30.5327 145.433 30.5654V33.2295C145.157 33.1784 144.861 33.1523 144.552 33.1523C143.57 33.1525 142.81 33.5235 142.276 34.2666C141.811 34.9219 141.578 35.7501 141.578 36.75V43.3496H138.787L138.813 34.7334C138.813 33.2838 138.777 31.9635 138.708 30.7734H141.14L141.243 33.1797H141.32C141.615 32.3527 142.08 31.6869 142.716 31.1875C143.338 30.738 144.011 30.5137 144.735 30.5137ZM130.2 32.5605C129.077 32.5606 128.225 33.0629 127.639 34.0654C127.137 34.8964 126.89 35.9072 126.89 37.1025C126.89 38.2624 127.137 39.2576 127.639 40.0859C128.243 41.0897 129.087 41.5898 130.175 41.5898C131.241 41.5898 132.078 41.079 132.682 40.0596C133.197 39.2142 133.457 38.2085 133.457 37.0498C133.457 35.89 133.209 34.895 132.708 34.0654C132.122 33.0614 131.284 32.5605 130.2 32.5605ZM76.5015 32.7432C75.8124 32.7432 75.1858 32.9739 74.6265 33.4287C74.066 33.8874 73.6994 34.4868 73.5278 35.2285C73.4415 35.5743 73.398 35.8574 73.3979 36.0801V38.1777C73.3981 39.0923 73.6782 39.8648 74.2388 40.4951C74.7994 41.1254 75.5285 41.4395 76.4243 41.4395C77.4759 41.4394 78.2949 41.0334 78.8804 40.2236C79.4672 39.4124 79.7602 38.3425 79.7603 37.0137C79.7603 35.7896 79.4848 34.7796 78.9321 33.9854C78.3283 33.1574 77.5177 32.7432 76.5015 32.7432ZM90.9604 32.7383C90.2702 32.7383 89.6451 32.9691 89.0845 33.4238C88.5241 33.8825 88.1584 34.482 87.9868 35.2236C87.9018 35.5693 87.8569 35.8525 87.8569 36.0752V38.1719C87.857 39.0866 88.1379 39.8589 88.6958 40.4893C89.2564 41.1183 89.9848 41.4346 90.8833 41.4346C91.9351 41.4346 92.7538 41.0277 93.3394 40.2178C93.926 39.4066 94.2191 38.3374 94.2192 37.0088C94.2192 35.7847 93.9428 34.7747 93.3901 33.9805C92.7863 33.1523 91.9781 32.7383 90.9604 32.7383ZM60.6724 28.248C60.5008 28.9898 60.2249 30.0855 59.8452 31.5332L58.3979 36.0879H63.0776L61.604 31.5332C61.4481 31.0677 61.1559 29.9721 60.7251 28.248H60.6724ZM152.493 32.4307C151.58 32.4307 150.837 32.8102 150.27 33.5703C149.805 34.1745 149.529 34.8992 149.444 35.7432H155.26C155.278 34.9155 155.097 34.2005 154.718 33.5967C154.235 32.8194 153.492 32.4307 152.493 32.4307Z" fill="white"/>
<path d="M96.1426 13.3691C97.0503 13.3692 97.7773 13.6699 98.3301 14.2715C98.8537 14.856 99.1172 15.6108 99.1172 16.5332C99.1171 17.4833 98.8459 18.2624 98.3037 18.873C97.7353 19.5005 96.9808 19.8134 96.042 19.8135C95.1344 19.8135 94.412 19.5138 93.875 18.9111C93.3381 18.3097 93.0695 17.5503 93.0693 16.6357C93.0693 15.6791 93.3461 14.8936 93.9014 14.2842C94.4568 13.6747 95.2034 13.3691 96.1426 13.3691ZM103.249 13.3691C104.863 13.3693 105.672 14.221 105.672 15.9248V18.2002C105.672 18.8173 105.702 19.3096 105.761 19.6738H104.528L104.427 18.9619H104.389C103.967 19.5291 103.365 19.8134 102.585 19.8135C102.002 19.8135 101.53 19.626 101.175 19.2539C100.853 18.916 100.692 18.495 100.691 17.9961C100.691 17.2412 101.006 16.665 101.639 16.2666C102.27 15.8682 103.158 15.6735 104.302 15.6826V15.5674C104.302 14.7535 103.875 14.3467 103.02 14.3467C102.41 14.3467 101.873 14.4996 101.409 14.8037L101.131 13.9023C101.705 13.5472 102.413 13.3691 103.249 13.3691ZM122.328 13.3682C123.233 13.3682 123.963 13.6681 124.513 14.2695C125.037 14.8541 125.3 15.6096 125.3 16.5322C125.3 17.4822 125.028 18.2604 124.486 18.8711C123.918 19.4988 123.166 19.8124 122.225 19.8125C121.32 19.8125 120.597 19.512 120.058 18.9092C119.521 18.3077 119.252 17.5484 119.252 16.6338C119.252 15.6773 119.529 14.8926 120.084 14.2832C120.639 13.6737 121.386 13.3682 122.328 13.3682ZM113.512 18.0059C113.512 18.6074 113.528 19.1624 113.561 19.6709H112.342L112.277 18.6787H112.239C111.85 19.4333 111.188 19.8114 110.257 19.8115C109.513 19.8115 108.893 19.519 108.401 18.9346C107.91 18.3501 107.665 17.5908 107.665 16.6592C107.665 15.6593 107.932 14.8491 108.466 14.2305C108.983 13.6538 109.618 13.3652 110.372 13.3652C111.201 13.3653 111.781 13.6445 112.111 14.2041H112.138V10.6572H113.512V18.0059ZM66.8721 13.3643C67.7781 13.3643 68.5063 13.6645 69.0576 14.2656C69.5814 14.8501 69.8456 15.6059 69.8457 16.5283C69.8456 17.4782 69.5743 18.2575 69.0322 18.8682C68.4637 19.4958 67.7099 19.8086 66.7695 19.8086C65.8632 19.8086 65.1409 19.509 64.6025 18.9062C64.0658 18.3048 63.797 17.5453 63.7969 16.6309C63.797 15.6745 64.0738 14.8886 64.6289 14.2793C65.1843 13.67 65.9317 13.3643 66.8721 13.3643ZM140.405 13.4912H141.917V14.5205H140.406V17.5225C140.406 18.2852 140.675 18.667 141.207 18.667C141.453 18.667 141.657 18.6457 141.818 18.6025L141.854 19.6445C141.583 19.7468 141.227 19.7978 140.788 19.7979C140.246 19.7979 139.824 19.6329 139.519 19.3027C139.212 18.9725 139.061 18.4164 139.061 17.6367V14.5205H138.157V13.4922H139.061V12.3594L140.405 11.9531V13.4912ZM154.112 13.3525C155 13.3525 155.675 13.6832 156.131 14.3438C156.499 14.868 156.682 15.5165 156.682 16.2871C156.682 16.5335 156.663 16.7411 156.63 16.9102H152.513C152.531 17.5208 152.728 17.9862 153.109 18.3086C153.458 18.5968 153.907 18.7412 154.457 18.7412C155.066 18.7412 155.622 18.6435 156.122 18.4482L156.337 19.4033C155.751 19.6576 155.062 19.7842 154.265 19.7842C153.308 19.7842 152.555 19.5021 152.01 18.9385C151.462 18.3749 151.191 17.6187 151.191 16.6699C151.191 15.7381 151.445 14.9624 151.954 14.3438C152.486 13.6833 153.205 13.3526 154.112 13.3525ZM57.4951 11.0312C58.9948 11.0312 60.1253 11.3581 60.8877 12.0107C61.7415 12.7485 62.1698 13.8036 62.1699 15.1768C62.1698 16.7191 61.7074 17.8813 60.7842 18.6611C59.9288 19.3804 58.7128 19.7412 57.1387 19.7412C56.3581 19.7412 55.6901 19.7068 55.1309 19.6387V11.21C55.8604 11.092 56.6464 11.0313 57.4951 11.0312ZM85.1016 13.3643C85.6779 13.3643 86.1579 13.5503 86.5391 13.9238C87.0131 14.3813 87.25 15.0649 87.25 15.9717V19.6729H85.877V16.1338C85.8769 15.0434 85.4632 14.4981 84.6328 14.498C84.2257 14.498 83.897 14.6474 83.6416 14.9473C83.3889 15.2474 83.2598 15.6019 83.2598 16.0068V19.6719H81.8867V15.2598C81.8867 14.7173 81.8696 14.128 81.8369 13.4912H83.0439L83.1084 14.458H83.1465C83.3063 14.1579 83.5445 13.9098 83.8574 13.7119C84.2294 13.4813 84.6458 13.3643 85.1016 13.3643ZM91.0352 19.6719H89.6631V10.6582H91.0352V19.6719ZM130.531 13.3623C131.106 13.3623 131.586 13.5484 131.967 13.9219C132.442 14.3793 132.678 15.0627 132.678 15.9697V19.6709H131.307V16.1318C131.307 15.0414 130.892 14.4961 130.061 14.4961C129.653 14.4962 129.324 14.6453 129.07 14.9453C128.816 15.2455 128.689 15.5999 128.689 16.0049V19.6699H127.315V15.2578C127.315 14.7152 127.299 14.1263 127.267 13.4893H128.472L128.536 14.4561H128.574C128.735 14.156 128.974 13.9078 129.285 13.71C129.658 13.4793 130.074 13.3623 130.531 13.3623ZM73.2969 16.4287C73.4657 17.123 73.6045 17.7849 73.7158 18.4111H73.7412C73.8434 17.8949 74.0127 17.2366 74.251 16.4414L75.127 13.4922H76.2461L77.085 16.3789C77.2879 17.0825 77.453 17.7605 77.5801 18.4131H77.6182C77.7111 17.7776 77.8521 17.0996 78.0381 16.3789L78.7871 13.4922H80.1338L78.2031 19.6699H76.9453L76.1445 16.9863C75.9416 16.3169 75.7768 15.6505 75.6484 14.9902H75.623C75.5039 15.6689 75.339 16.3339 75.127 16.9863L74.2764 19.6699H73.0049L71.1885 13.4912H72.5986L73.2969 16.4287ZM145.195 14.3799H145.222C145.654 13.7024 146.273 13.3643 147.076 13.3643C147.645 13.3643 148.115 13.5503 148.488 13.9238C148.953 14.3891 149.187 15.0813 149.187 15.9961V19.6699H147.812V16.1572C147.812 15.0498 147.398 14.4952 146.569 14.4951C145.933 14.4951 145.497 14.8167 145.259 15.459C145.218 15.5939 145.195 15.7594 145.195 15.9531V19.6689H143.823V10.6562H145.195V14.3799ZM96.0947 14.3691C95.5421 14.3692 95.1228 14.6157 94.8359 15.1084C94.59 15.5159 94.4678 16.0128 94.4678 16.5996C94.4679 17.1695 94.5911 17.6589 94.8359 18.0664C95.1333 18.559 95.5477 18.8057 96.082 18.8057C96.6059 18.8056 97.0155 18.5545 97.3115 18.0527C97.5669 17.6374 97.6933 17.1442 97.6934 16.5742C97.6933 16.0046 97.5698 15.5158 97.3252 15.1084C97.0383 14.6156 96.6266 14.3691 96.0947 14.3691ZM104.335 16.5928C102.821 16.5666 102.064 16.9822 102.063 17.8379C102.064 18.16 102.15 18.4014 102.327 18.5625C102.504 18.7236 102.73 18.8037 102.998 18.8037C103.299 18.8036 103.58 18.7083 103.837 18.5186C104.095 18.3273 104.253 18.0844 104.312 17.7871C104.327 17.7204 104.335 17.6388 104.335 17.5459V16.5928ZM122.275 14.3672C121.725 14.3672 121.306 14.6138 121.017 15.1064C120.77 15.514 120.648 16.0115 120.648 16.5986C120.649 17.1684 120.772 17.657 121.017 18.0645C121.314 18.557 121.728 18.8036 122.262 18.8037C122.786 18.8037 123.199 18.5536 123.495 18.0518C123.748 17.6363 123.876 17.1432 123.876 16.5732C123.876 16.0032 123.753 15.514 123.508 15.1064C123.218 14.6138 122.81 14.3672 122.275 14.3672ZM66.8203 14.3662C66.2691 14.3663 65.8497 14.6129 65.5615 15.1055C65.3155 15.5128 65.1935 16.01 65.1934 16.5967C65.1934 17.1664 65.3168 17.6561 65.5615 18.0635C65.8589 18.5561 66.2733 18.8027 66.8076 18.8027C67.3314 18.8027 67.7431 18.5525 68.0391 18.0508C68.293 17.6355 68.4198 17.142 68.4199 16.5723C68.4199 16.0024 68.2965 15.5129 68.0518 15.1055C67.7636 14.6129 67.3533 14.3662 66.8203 14.3662ZM110.683 14.4307C110.171 14.4307 109.769 14.6344 109.475 15.042C109.183 15.4495 109.035 15.97 109.035 16.6055C109.035 17.2161 109.175 17.7114 109.457 18.0928C109.754 18.4989 110.155 18.703 110.656 18.7031C111.107 18.7031 111.467 18.5336 111.741 18.1943C112.006 17.8811 112.136 17.5028 112.136 17.0625V16.0332C112.136 15.8552 112.122 15.7106 112.098 15.6006C112.02 15.2704 111.854 14.9917 111.602 14.7676C111.346 14.5435 111.038 14.4307 110.683 14.4307ZM57.6094 12.1133C57.1773 12.1133 56.809 12.1429 56.5039 12.2031V18.6104C56.6729 18.6365 56.9819 18.6484 57.4307 18.6484C58.4809 18.6484 59.2922 18.3567 59.8633 17.7725C60.4342 17.188 60.7226 16.3348 60.7227 15.2158C60.7225 14.2163 60.4576 13.4497 59.9287 12.915C59.3996 12.3818 58.6269 12.1133 57.6094 12.1133ZM154.015 14.3037C153.567 14.3037 153.201 14.4897 152.922 14.8633C152.694 15.1608 152.559 15.5162 152.515 15.9316H155.373C155.384 15.524 155.292 15.1722 155.106 14.876C154.868 14.4948 154.506 14.3038 154.015 14.3037Z" fill="white"/>
<path d="M28.031 20.3262C29.3548 20.3262 31.8758 18.498 34.4744 18.7715C35.5618 18.8032 38.6561 19.2011 40.6521 22.1113C40.491 22.2078 36.9654 24.2792 37.0037 28.5371C37.0473 33.6349 41.4585 35.3235 41.5223 35.3457C41.4958 35.4646 40.8297 37.7812 39.1717 40.1328C37.7872 42.2028 36.3368 44.2267 34.033 44.2637C31.7951 44.3152 31.0421 42.9464 28.4754 42.9463C25.8847 42.9463 25.0821 44.2269 22.9353 44.3154C20.7412 44.3957 19.0643 42.1043 17.6297 40.0527C14.7618 35.8634 12.5298 28.2479 15.5232 23.0654C16.9737 20.5238 19.6181 18.8865 22.4451 18.8428C24.642 18.7979 26.6809 20.326 28.031 20.3262ZM34.5018 10.6152C34.721 12.6088 33.9308 14.5736 32.7762 16.0176C31.5713 17.439 29.6436 18.5258 27.7664 18.3857C27.5208 16.4676 28.4722 14.428 29.5369 13.1836C30.7404 11.7713 32.8306 10.6892 34.5018 10.6152Z" fill="white"/>
</g>
<defs>
<clipPath id="clip0_1998_30058">
<rect width="174.759" height="59.2931" fill="white" transform="translate(0.499512)"/>
</clipPath>
</defs>
</svg>
