<svg width="36" height="36" viewBox="0 0 36 36" fill="none" xmlns="http://www.w3.org/2000/svg">
<rect width="36" height="36" rx="18" fill="#FDDFC5"/>
<path d="M25.4945 23H10.5055C10.0069 22.9994 9.52898 22.8011 9.17646 22.4485C8.82394 22.096 8.62562 21.6181 8.625 21.1195V13.0055C8.62562 12.5069 8.82394 12.029 9.17646 11.6765C9.52898 11.3239 10.0069 11.1256 10.5055 11.125H25.4945C25.9931 11.1256 26.471 11.3239 26.8235 11.6765C27.1761 12.029 27.3744 12.5069 27.375 13.0055V21.1195C27.3744 21.6181 27.1761 22.096 26.8235 22.4485C26.471 22.8011 25.9931 22.9994 25.4945 23Z" fill="#BB4E05"/>
<path d="M13 24.25H23H13Z" fill="#BB4E05"/>
<path d="M13 24.25H23" stroke="#BB4E05" stroke-miterlimit="10" stroke-linecap="round"/>
</svg>
