<svg width="396" height="346" viewBox="0 0 396 346" fill="none" xmlns="http://www.w3.org/2000/svg">
<g filter="url(#filter0_d_1998_33194)">
<rect x="69" y="69" width="258.392" height="208.483" rx="18" fill="white" shape-rendering="crispEdges"/>
<path d="M83.5432 95.5703V85.7013H89.9619V87.2H85.331V89.8793H89.6294V91.3779H85.331V94.0717H90.0005V95.5703H83.5432ZM93.4532 85.7013V95.5703H91.7087V85.7013H93.4532ZM98.5238 95.7149C97.7817 95.7149 97.1408 95.5607 96.6011 95.2523C96.0646 94.9407 95.6518 94.5005 95.3626 93.9319C95.0735 93.3601 94.9289 92.687 94.9289 91.9128C94.9289 91.1514 95.0735 90.4832 95.3626 89.9082C95.655 89.3299 96.063 88.8802 96.5866 88.5589C97.1103 88.2344 97.7255 88.0722 98.4322 88.0722C98.8884 88.0722 99.3189 88.1461 99.7237 88.2939C100.132 88.4384 100.491 88.6633 100.803 88.9685C101.118 89.2737 101.365 89.6624 101.545 90.1347C101.725 90.6037 101.815 91.1627 101.815 91.8116V92.3465H95.7481V91.1707H100.143C100.14 90.8366 100.067 90.5394 99.9261 90.2792C99.7847 90.0158 99.5871 89.8086 99.3334 89.6576C99.0828 89.5066 98.7904 89.4311 98.4563 89.4311C98.0997 89.4311 97.7865 89.5179 97.5167 89.6913C97.2468 89.8616 97.0364 90.0865 96.8854 90.366C96.7376 90.6422 96.6621 90.9458 96.6589 91.2767V92.3031C96.6589 92.7336 96.7376 93.1031 96.895 93.4115C97.0524 93.7167 97.2725 93.9512 97.5552 94.115C97.8379 94.2757 98.1688 94.356 98.5479 94.356C98.8017 94.356 99.0314 94.3206 99.237 94.25C99.4426 94.1761 99.6209 94.0684 99.7719 93.9271C99.9229 93.7857 100.037 93.6107 100.114 93.4018L101.743 93.585C101.64 94.0154 101.444 94.3913 101.155 94.7126C100.869 95.0306 100.503 95.278 100.056 95.4547C99.6096 95.6281 99.0988 95.7149 98.5238 95.7149ZM106.519 95.7149C105.781 95.7149 105.146 95.5526 104.616 95.2282C104.089 94.9037 103.683 94.4556 103.397 93.8837C103.114 93.3087 102.973 92.6469 102.973 91.8984C102.973 91.1466 103.117 90.4832 103.406 89.9082C103.696 89.3299 104.104 88.8802 104.63 88.5589C105.161 88.2344 105.787 88.0722 106.51 88.0722C107.111 88.0722 107.642 88.183 108.105 88.4047C108.571 88.6232 108.942 88.9332 109.218 89.3347C109.494 89.7331 109.652 90.1989 109.69 90.7322H108.023C107.955 90.3756 107.795 90.0784 107.541 89.8407C107.29 89.5998 106.955 89.4793 106.534 89.4793C106.177 89.4793 105.864 89.5757 105.594 89.7684C105.324 89.958 105.114 90.231 104.963 90.5876C104.815 90.9442 104.741 91.3715 104.741 91.8694C104.741 92.3738 104.815 92.8075 104.963 93.1705C105.111 93.5303 105.318 93.8082 105.585 94.0042C105.854 94.1969 106.171 94.2933 106.534 94.2933C106.791 94.2933 107.021 94.2451 107.223 94.1488C107.429 94.0492 107.6 93.9062 107.739 93.7199C107.877 93.5336 107.972 93.3071 108.023 93.0404H109.69C109.648 93.5641 109.494 94.0283 109.228 94.4331C108.961 94.8346 108.598 95.1495 108.139 95.3776C107.679 95.6024 107.139 95.7149 106.519 95.7149ZM114.819 88.1686V89.5179H110.564V88.1686H114.819ZM111.614 86.3952H113.359V93.344C113.359 93.5785 113.394 93.7584 113.465 93.8837C113.538 94.0058 113.635 94.0893 113.754 94.1343C113.873 94.1793 114.004 94.2018 114.149 94.2018C114.258 94.2018 114.358 94.1937 114.448 94.1777C114.541 94.1616 114.611 94.1471 114.66 94.1343L114.954 95.498C114.86 95.5302 114.727 95.5655 114.554 95.604C114.383 95.6426 114.175 95.6651 113.927 95.6715C113.49 95.6844 113.097 95.6185 112.747 95.4739C112.396 95.3262 112.119 95.0981 111.913 94.7897C111.711 94.4813 111.611 94.0957 111.614 93.6331V86.3952ZM116.278 95.5703V88.1686H117.969V89.4022H118.046C118.181 88.9749 118.412 88.6456 118.74 88.4143C119.071 88.1798 119.448 88.0626 119.872 88.0626C119.969 88.0626 120.076 88.0674 120.195 88.077C120.317 88.0834 120.419 88.0947 120.499 88.1108V89.7154C120.425 89.6897 120.308 89.6672 120.147 89.648C119.99 89.6255 119.837 89.6142 119.689 89.6142C119.371 89.6142 119.085 89.6833 118.832 89.8214C118.581 89.9564 118.383 90.1443 118.239 90.3852C118.094 90.6262 118.022 90.9041 118.022 91.2189V95.5703H116.278ZM121.658 95.5703V88.1686H123.402V95.5703H121.658ZM122.535 87.1181C122.259 87.1181 122.021 87.0265 121.822 86.8434C121.622 86.6571 121.523 86.4338 121.523 86.1736C121.523 85.9102 121.622 85.6869 121.822 85.5038C122.021 85.3174 122.259 85.2243 122.535 85.2243C122.814 85.2243 123.052 85.3174 123.248 85.5038C123.447 85.6869 123.547 85.9102 123.547 86.1736C123.547 86.4338 123.447 86.6571 123.248 86.8434C123.052 87.0265 122.814 87.1181 122.535 87.1181ZM128.425 95.7149C127.686 95.7149 127.051 95.5526 126.521 95.2282C125.994 94.9037 125.588 94.4556 125.302 93.8837C125.019 93.3087 124.878 92.6469 124.878 91.8984C124.878 91.1466 125.023 90.4832 125.312 89.9082C125.601 89.3299 126.009 88.8802 126.536 88.5589C127.066 88.2344 127.692 88.0722 128.415 88.0722C129.016 88.0722 129.547 88.183 130.01 88.4047C130.476 88.6232 130.847 88.9332 131.123 89.3347C131.4 89.7331 131.557 90.1989 131.595 90.7322H129.928C129.861 90.3756 129.7 90.0784 129.446 89.8407C129.196 89.5998 128.86 89.4793 128.439 89.4793C128.083 89.4793 127.769 89.5757 127.499 89.7684C127.23 89.958 127.019 90.231 126.868 90.5876C126.72 90.9442 126.647 91.3715 126.647 91.8694C126.647 92.3738 126.72 92.8075 126.868 93.1705C127.016 93.5303 127.223 93.8082 127.49 94.0042C127.76 94.1969 128.076 94.2933 128.439 94.2933C128.696 94.2933 128.926 94.2451 129.128 94.1488C129.334 94.0492 129.506 93.9062 129.644 93.7199C129.782 93.5336 129.877 93.3071 129.928 93.0404H131.595C131.554 93.5641 131.4 94.0283 131.133 94.4331C130.866 94.8346 130.503 95.1495 130.044 95.3776C129.584 95.6024 129.045 95.7149 128.425 95.7149ZM133.028 95.5703V88.1686H134.772V95.5703H133.028ZM133.905 87.1181C133.629 87.1181 133.391 87.0265 133.192 86.8434C132.993 86.6571 132.893 86.4338 132.893 86.1736C132.893 85.9102 132.993 85.6869 133.192 85.5038C133.391 85.3174 133.629 85.2243 133.905 85.2243C134.184 85.2243 134.422 85.3174 134.618 85.5038C134.817 85.6869 134.917 85.9102 134.917 86.1736C134.917 86.4338 134.817 86.6571 134.618 86.8434C134.422 87.0265 134.184 87.1181 133.905 87.1181ZM140.262 88.1686V89.5179H136.007V88.1686H140.262ZM137.058 86.3952H138.802V93.344C138.802 93.5785 138.837 93.7584 138.908 93.8837C138.982 94.0058 139.078 94.0893 139.197 94.1343C139.316 94.1793 139.448 94.2018 139.592 94.2018C139.702 94.2018 139.801 94.1937 139.891 94.1777C139.984 94.1616 140.055 94.1471 140.103 94.1343L140.397 95.498C140.304 95.5302 140.171 95.5655 139.997 95.604C139.827 95.6426 139.618 95.6651 139.371 95.6715C138.934 95.6844 138.54 95.6185 138.19 95.4739C137.84 95.3262 137.562 95.0981 137.356 94.7897C137.154 94.4813 137.054 94.0957 137.058 93.6331V86.3952ZM142.805 98.346C142.568 98.346 142.347 98.3267 142.145 98.2881C141.946 98.2528 141.787 98.211 141.668 98.1628L142.073 96.8039C142.327 96.8778 142.553 96.9132 142.752 96.9099C142.951 96.9067 143.127 96.8441 143.278 96.722C143.432 96.6031 143.562 96.404 143.668 96.1245L143.817 95.7245L141.133 88.1686H142.984L144.689 93.7584H144.767L146.477 88.1686H148.332L145.369 96.4666C145.231 96.8585 145.048 97.1943 144.82 97.4738C144.591 97.7565 144.312 97.9717 143.981 98.1195C143.653 98.2705 143.261 98.346 142.805 98.346Z" fill="#0E1318"/>
<path d="M83.2669 109.963V104.206H85.2122C85.6638 104.206 86.033 104.288 86.3197 104.451C86.6083 104.612 86.8219 104.83 86.9606 105.106C87.0993 105.381 87.1686 105.688 87.1686 106.028C87.1686 106.367 87.0993 106.675 86.9606 106.952C86.8238 107.23 86.612 107.451 86.3253 107.616C86.0386 107.779 85.6713 107.86 85.2234 107.86H83.8291V107.242H85.2009C85.5101 107.242 85.7584 107.188 85.9458 107.082C86.1332 106.975 86.2691 106.831 86.3534 106.649C86.4396 106.465 86.4827 106.258 86.4827 106.028C86.4827 105.797 86.4396 105.591 86.3534 105.409C86.2691 105.227 86.1323 105.085 85.943 104.982C85.7537 104.877 85.5026 104.824 85.1897 104.824H83.9641V109.963H83.2669ZM90.9227 108.198V105.645H91.5861V109.963H90.9227V109.232H90.8777C90.7765 109.451 90.6191 109.638 90.4055 109.791C90.1918 109.943 89.922 110.019 89.5959 110.019C89.326 110.019 89.0862 109.96 88.8763 109.842C88.6664 109.722 88.5015 109.542 88.3815 109.302C88.2616 109.061 88.2016 108.756 88.2016 108.389V105.645H88.865V108.344C88.865 108.659 88.9531 108.91 89.1293 109.097C89.3073 109.285 89.534 109.378 89.8095 109.378C89.9744 109.378 90.1422 109.336 90.3127 109.252C90.4851 109.167 90.6294 109.038 90.7456 108.864C90.8636 108.69 90.9227 108.467 90.9227 108.198ZM92.8011 109.963V105.645H93.442V106.297H93.487C93.5657 106.084 93.7081 105.91 93.9143 105.777C94.1204 105.644 94.3528 105.578 94.6114 105.578C94.6601 105.578 94.721 105.579 94.7941 105.581C94.8672 105.582 94.9225 105.585 94.96 105.589V106.264C94.9375 106.258 94.8859 106.25 94.8054 106.238C94.7266 106.225 94.6433 106.219 94.5552 106.219C94.3453 106.219 94.1579 106.263 93.993 106.351C93.8299 106.437 93.7006 106.557 93.6051 106.711C93.5114 106.862 93.4645 107.036 93.4645 107.231V109.963H92.8011ZM97.369 110.053C96.9642 110.053 96.6156 109.957 96.3233 109.766C96.0309 109.575 95.8061 109.312 95.6487 108.976C95.4912 108.641 95.4125 108.258 95.4125 107.827C95.4125 107.388 95.4931 107.001 95.6543 106.666C95.8173 106.328 96.0441 106.065 96.3345 105.876C96.6269 105.685 96.9679 105.589 97.3577 105.589C97.6613 105.589 97.9349 105.645 98.1785 105.758C98.4222 105.87 98.6217 106.028 98.7773 106.23C98.9328 106.432 99.0293 106.668 99.0668 106.938H98.4034C98.3528 106.741 98.2404 106.567 98.0661 106.415C97.8937 106.262 97.6613 106.185 97.369 106.185C97.1104 106.185 96.8836 106.252 96.6887 106.387C96.4957 106.52 96.3448 106.709 96.2361 106.952C96.1293 107.194 96.0759 107.478 96.0759 107.804C96.0759 108.138 96.1284 108.428 96.2333 108.675C96.3402 108.923 96.4901 109.115 96.6831 109.252C96.878 109.389 97.1066 109.457 97.369 109.457C97.5414 109.457 97.6979 109.427 97.8384 109.367C97.979 109.307 98.098 109.221 98.1954 109.108C98.2929 108.996 98.3622 108.861 98.4034 108.704H99.0668C99.0293 108.958 98.9366 109.188 98.7885 109.392C98.6424 109.595 98.4484 109.756 98.2066 109.876C97.9668 109.994 97.6876 110.053 97.369 110.053ZM100.7 107.366V109.963H100.037V104.206H100.7V106.32H100.756C100.857 106.097 101.009 105.92 101.212 105.789C101.416 105.656 101.688 105.589 102.027 105.589C102.321 105.589 102.579 105.648 102.8 105.766C103.021 105.882 103.192 106.061 103.314 106.303C103.438 106.543 103.5 106.848 103.5 107.219V109.963H102.836V107.264C102.836 106.921 102.747 106.656 102.569 106.469C102.393 106.28 102.149 106.185 101.836 106.185C101.618 106.185 101.423 106.231 101.251 106.323C101.08 106.414 100.945 106.548 100.846 106.725C100.749 106.901 100.7 107.114 100.7 107.366ZM105.984 110.064C105.71 110.064 105.462 110.013 105.239 109.909C105.016 109.805 104.839 109.654 104.708 109.457C104.577 109.258 104.511 109.018 104.511 108.737C104.511 108.49 104.56 108.289 104.657 108.136C104.755 107.98 104.885 107.858 105.048 107.77C105.211 107.682 105.391 107.617 105.588 107.574C105.786 107.529 105.986 107.493 106.186 107.467C106.449 107.433 106.661 107.408 106.824 107.391C106.989 107.372 107.109 107.341 107.184 107.298C107.261 107.255 107.299 107.18 107.299 107.073V107.051C107.299 106.773 107.224 106.558 107.072 106.404C106.922 106.251 106.694 106.174 106.389 106.174C106.072 106.174 105.824 106.243 105.644 106.382C105.464 106.52 105.337 106.668 105.264 106.826L104.635 106.601C104.747 106.339 104.897 106.134 105.084 105.988C105.274 105.84 105.48 105.737 105.703 105.679C105.928 105.619 106.149 105.589 106.366 105.589C106.505 105.589 106.664 105.606 106.844 105.64C107.026 105.671 107.201 105.738 107.37 105.839C107.54 105.94 107.682 106.093 107.794 106.297C107.907 106.502 107.963 106.775 107.963 107.118V109.963H107.299V109.378H107.266C107.221 109.472 107.146 109.572 107.041 109.679C106.936 109.786 106.796 109.877 106.622 109.952C106.448 110.027 106.235 110.064 105.984 110.064ZM106.085 109.468C106.348 109.468 106.569 109.417 106.749 109.314C106.93 109.21 107.067 109.077 107.159 108.914C107.253 108.751 107.299 108.58 107.299 108.4V107.793C107.271 107.827 107.21 107.857 107.114 107.886C107.02 107.912 106.912 107.935 106.788 107.956C106.666 107.975 106.547 107.991 106.431 108.006C106.317 108.02 106.224 108.031 106.153 108.04C105.98 108.063 105.819 108.099 105.669 108.15C105.521 108.199 105.401 108.273 105.309 108.372C105.219 108.469 105.174 108.602 105.174 108.771C105.174 109.002 105.26 109.176 105.43 109.294C105.603 109.41 105.821 109.468 106.085 109.468ZM112.232 106.612L111.636 106.781C111.599 106.682 111.543 106.585 111.47 106.491C111.399 106.396 111.302 106.317 111.178 106.255C111.054 106.193 110.896 106.162 110.703 106.162C110.439 106.162 110.218 106.223 110.042 106.345C109.868 106.465 109.781 106.618 109.781 106.803C109.781 106.968 109.841 107.098 109.961 107.194C110.081 107.29 110.268 107.369 110.523 107.433L111.164 107.59C111.55 107.684 111.838 107.827 112.027 108.02C112.216 108.212 112.311 108.458 112.311 108.76C112.311 109.007 112.24 109.228 112.097 109.423C111.957 109.618 111.76 109.772 111.507 109.884C111.254 109.997 110.96 110.053 110.624 110.053C110.184 110.053 109.819 109.957 109.531 109.766C109.242 109.575 109.059 109.296 108.983 108.928L109.612 108.771C109.672 109.003 109.786 109.178 109.952 109.294C110.121 109.41 110.341 109.468 110.613 109.468C110.922 109.468 111.168 109.403 111.349 109.271C111.533 109.138 111.625 108.979 111.625 108.794C111.625 108.644 111.572 108.518 111.467 108.417C111.363 108.314 111.201 108.237 110.984 108.186L110.264 108.018C109.869 107.924 109.579 107.779 109.393 107.582C109.209 107.383 109.117 107.135 109.117 106.837C109.117 106.593 109.186 106.378 109.323 106.191C109.461 106.003 109.65 105.856 109.888 105.749C110.128 105.642 110.399 105.589 110.703 105.589C111.13 105.589 111.466 105.683 111.709 105.87C111.955 106.057 112.129 106.305 112.232 106.612ZM115.12 110.053C114.704 110.053 114.345 109.961 114.043 109.777C113.743 109.592 113.512 109.333 113.349 109.002C113.188 108.668 113.107 108.28 113.107 107.838C113.107 107.396 113.188 107.006 113.349 106.668C113.512 106.329 113.739 106.065 114.029 105.876C114.321 105.685 114.662 105.589 115.052 105.589C115.277 105.589 115.499 105.626 115.718 105.701C115.938 105.776 116.137 105.898 116.317 106.067C116.497 106.234 116.64 106.455 116.747 106.73C116.854 107.006 116.907 107.345 116.907 107.748V108.029H113.579V107.455H116.233C116.233 107.212 116.184 106.994 116.087 106.803C115.991 106.612 115.854 106.461 115.676 106.351C115.5 106.24 115.292 106.185 115.052 106.185C114.788 106.185 114.559 106.251 114.366 106.382C114.175 106.511 114.028 106.68 113.925 106.888C113.822 107.096 113.77 107.319 113.77 107.557V107.939C113.77 108.265 113.827 108.541 113.939 108.768C114.053 108.993 114.212 109.165 114.414 109.283C114.616 109.399 114.852 109.457 115.12 109.457C115.294 109.457 115.451 109.433 115.592 109.384C115.734 109.333 115.857 109.258 115.96 109.159C116.063 109.058 116.143 108.932 116.199 108.782L116.84 108.962C116.773 109.18 116.659 109.371 116.5 109.536C116.341 109.699 116.144 109.826 115.91 109.918C115.675 110.008 115.412 110.053 115.12 110.053ZM121.953 110.053C121.537 110.053 121.178 109.961 120.877 109.777C120.577 109.592 120.345 109.333 120.182 109.002C120.021 108.668 119.941 108.28 119.941 107.838C119.941 107.396 120.021 107.006 120.182 106.668C120.345 106.329 120.572 106.065 120.863 105.876C121.155 105.685 121.496 105.589 121.886 105.589C122.111 105.589 122.333 105.626 122.552 105.701C122.771 105.776 122.971 105.898 123.151 106.067C123.331 106.234 123.474 106.455 123.581 106.73C123.688 107.006 123.741 107.345 123.741 107.748V108.029H120.413V107.455H123.066C123.066 107.212 123.018 106.994 122.92 106.803C122.825 106.612 122.688 106.461 122.51 106.351C122.334 106.24 122.126 106.185 121.886 106.185C121.621 106.185 121.393 106.251 121.2 106.382C121.009 106.511 120.862 106.68 120.759 106.888C120.655 107.096 120.604 107.319 120.604 107.557V107.939C120.604 108.265 120.66 108.541 120.773 108.768C120.887 108.993 121.045 109.165 121.248 109.283C121.45 109.399 121.685 109.457 121.953 109.457C122.127 109.457 122.285 109.433 122.425 109.384C122.568 109.333 122.691 109.258 122.794 109.159C122.897 109.058 122.976 108.932 123.033 108.782L123.673 108.962C123.606 109.18 123.493 109.371 123.333 109.536C123.174 109.699 122.977 109.826 122.743 109.918C122.509 110.008 122.246 110.053 121.953 110.053ZM125.413 104.206V109.963H124.75V104.206H125.413ZM128.439 110.053C128.023 110.053 127.664 109.961 127.362 109.777C127.062 109.592 126.831 109.333 126.668 109.002C126.507 108.668 126.426 108.28 126.426 107.838C126.426 107.396 126.507 107.006 126.668 106.668C126.831 106.329 127.058 106.065 127.348 105.876C127.641 105.685 127.982 105.589 128.371 105.589C128.596 105.589 128.818 105.626 129.038 105.701C129.257 105.776 129.456 105.898 129.636 106.067C129.816 106.234 129.96 106.455 130.066 106.73C130.173 107.006 130.227 107.345 130.227 107.748V108.029H126.898V107.455H129.552C129.552 107.212 129.503 106.994 129.406 106.803C129.31 106.612 129.173 106.461 128.995 106.351C128.819 106.24 128.611 106.185 128.371 106.185C128.107 106.185 127.879 106.251 127.685 106.382C127.494 106.511 127.347 106.68 127.244 106.888C127.141 107.096 127.09 107.319 127.09 107.557V107.939C127.09 108.265 127.146 108.541 127.258 108.768C127.373 108.993 127.531 109.165 127.733 109.283C127.936 109.399 128.171 109.457 128.439 109.457C128.613 109.457 128.771 109.433 128.911 109.384C129.053 109.333 129.176 109.258 129.279 109.159C129.382 109.058 129.462 108.932 129.518 108.782L130.159 108.962C130.092 109.18 129.978 109.371 129.819 109.536C129.66 109.699 129.463 109.826 129.229 109.918C128.994 110.008 128.731 110.053 128.439 110.053ZM132.99 110.053C132.585 110.053 132.236 109.957 131.944 109.766C131.652 109.575 131.427 109.312 131.269 108.976C131.112 108.641 131.033 108.258 131.033 107.827C131.033 107.388 131.114 107.001 131.275 106.666C131.438 106.328 131.665 106.065 131.955 105.876C132.248 105.685 132.589 105.589 132.979 105.589C133.282 105.589 133.556 105.645 133.799 105.758C134.043 105.87 134.243 106.028 134.398 106.23C134.554 106.432 134.65 106.668 134.688 106.938H134.024C133.974 106.741 133.861 106.567 133.687 106.415C133.515 106.262 133.282 106.185 132.99 106.185C132.731 106.185 132.504 106.252 132.31 106.387C132.117 106.52 131.966 106.709 131.857 106.952C131.75 107.194 131.697 107.478 131.697 107.804C131.697 108.138 131.749 108.428 131.854 108.675C131.961 108.923 132.111 109.115 132.304 109.252C132.499 109.389 132.727 109.457 132.99 109.457C133.162 109.457 133.319 109.427 133.459 109.367C133.6 109.307 133.719 109.221 133.816 109.108C133.914 108.996 133.983 108.861 134.024 108.704H134.688C134.65 108.958 134.557 109.188 134.409 109.392C134.263 109.595 134.069 109.756 133.827 109.876C133.588 109.994 133.308 110.053 132.99 110.053ZM137.535 105.645V106.207H135.298V105.645H137.535ZM135.95 104.611H136.613V108.726C136.613 108.913 136.64 109.054 136.695 109.148C136.751 109.24 136.822 109.301 136.908 109.333C136.996 109.363 137.089 109.378 137.187 109.378C137.26 109.378 137.32 109.374 137.367 109.367C137.413 109.358 137.451 109.35 137.479 109.344L137.614 109.94C137.569 109.957 137.506 109.974 137.426 109.991C137.345 110.01 137.243 110.019 137.119 110.019C136.932 110.019 136.748 109.979 136.568 109.898C136.39 109.818 136.242 109.695 136.124 109.53C136.008 109.365 135.95 109.157 135.95 108.906V104.611ZM138.533 109.963V105.645H139.174V106.297H139.219C139.298 106.084 139.44 105.91 139.646 105.777C139.852 105.644 140.085 105.578 140.343 105.578C140.392 105.578 140.453 105.579 140.526 105.581C140.599 105.582 140.654 105.585 140.692 105.589V106.264C140.669 106.258 140.618 106.25 140.537 106.238C140.459 106.225 140.375 106.219 140.287 106.219C140.077 106.219 139.89 106.263 139.725 106.351C139.562 106.437 139.433 106.557 139.337 106.711C139.243 106.862 139.196 107.036 139.196 107.231V109.963H138.533ZM141.478 109.963V105.645H142.142V109.963H141.478ZM141.816 104.926C141.686 104.926 141.575 104.882 141.481 104.793C141.389 104.705 141.343 104.6 141.343 104.476C141.343 104.352 141.389 104.246 141.481 104.158C141.575 104.07 141.686 104.026 141.816 104.026C141.945 104.026 142.055 104.07 142.147 104.158C142.241 104.246 142.288 104.352 142.288 104.476C142.288 104.6 142.241 104.705 142.147 104.793C142.055 104.882 141.945 104.926 141.816 104.926ZM145.111 110.053C144.706 110.053 144.357 109.957 144.065 109.766C143.773 109.575 143.548 109.312 143.39 108.976C143.233 108.641 143.154 108.258 143.154 107.827C143.154 107.388 143.235 107.001 143.396 106.666C143.559 106.328 143.786 106.065 144.076 105.876C144.369 105.685 144.71 105.589 145.1 105.589C145.403 105.589 145.677 105.645 145.92 105.758C146.164 105.87 146.364 106.028 146.519 106.23C146.675 106.432 146.771 106.668 146.809 106.938H146.145C146.095 106.741 145.982 106.567 145.808 106.415C145.636 106.262 145.403 106.185 145.111 106.185C144.852 106.185 144.625 106.252 144.431 106.387C144.238 106.52 144.087 106.709 143.978 106.952C143.871 107.194 143.818 107.478 143.818 107.804C143.818 108.138 143.87 108.428 143.975 108.675C144.082 108.923 144.232 109.115 144.425 109.252C144.62 109.389 144.848 109.457 145.111 109.457C145.283 109.457 145.44 109.427 145.58 109.367C145.721 109.307 145.84 109.221 145.937 109.108C146.035 108.996 146.104 108.861 146.145 108.704H146.809C146.771 108.958 146.678 109.188 146.53 109.392C146.384 109.595 146.19 109.756 145.948 109.876C145.709 109.994 145.429 110.053 145.111 110.053ZM147.778 109.963V105.645H148.442V109.963H147.778ZM148.116 104.926C147.986 104.926 147.875 104.882 147.781 104.793C147.689 104.705 147.643 104.6 147.643 104.476C147.643 104.352 147.689 104.246 147.781 104.158C147.875 104.07 147.986 104.026 148.116 104.026C148.245 104.026 148.356 104.07 148.447 104.158C148.541 104.246 148.588 104.352 148.588 104.476C148.588 104.6 148.541 104.705 148.447 104.793C148.356 104.882 148.245 104.926 148.116 104.926ZM151.535 105.645V106.207H149.297V105.645H151.535ZM149.949 104.611H150.613V108.726C150.613 108.913 150.64 109.054 150.694 109.148C150.75 109.24 150.822 109.301 150.908 109.333C150.996 109.363 151.089 109.378 151.186 109.378C151.259 109.378 151.319 109.374 151.366 109.367C151.413 109.358 151.45 109.35 151.478 109.344L151.613 109.94C151.568 109.957 151.506 109.974 151.425 109.991C151.344 110.01 151.242 110.019 151.119 110.019C150.931 110.019 150.748 109.979 150.568 109.898C150.39 109.818 150.242 109.695 150.123 109.53C150.007 109.365 149.949 109.157 149.949 108.906V104.611ZM152.96 111.582C152.847 111.582 152.747 111.573 152.659 111.554C152.571 111.537 152.51 111.52 152.476 111.503L152.645 110.919C152.806 110.96 152.949 110.975 153.072 110.964C153.196 110.952 153.306 110.897 153.401 110.798C153.499 110.7 153.588 110.542 153.668 110.323L153.792 109.985L152.195 105.645H152.915L154.107 109.086H154.152L155.344 105.645H156.063L154.23 110.593C154.148 110.816 154.046 111 153.924 111.146C153.802 111.294 153.661 111.404 153.499 111.475C153.34 111.546 153.16 111.582 152.96 111.582ZM160.143 109.963L158.828 105.645H159.525L160.458 108.951H160.503L161.425 105.645H162.133L163.044 108.94H163.089L164.022 105.645H164.72L163.404 109.963H162.752L161.807 106.646H161.74L160.795 109.963H160.143ZM165.597 109.963V105.645H166.26V109.963H165.597ZM165.934 104.926C165.805 104.926 165.693 104.882 165.599 104.793C165.508 104.705 165.462 104.6 165.462 104.476C165.462 104.352 165.508 104.246 165.599 104.158C165.693 104.07 165.805 104.026 165.934 104.026C166.063 104.026 166.174 104.07 166.266 104.158C166.359 104.246 166.406 104.352 166.406 104.476C166.406 104.6 166.359 104.705 166.266 104.793C166.174 104.882 166.063 104.926 165.934 104.926ZM169.353 105.645V106.207H167.115V105.645H169.353ZM167.767 104.611H168.431V108.726C168.431 108.913 168.458 109.054 168.512 109.148C168.568 109.24 168.64 109.301 168.726 109.333C168.814 109.363 168.907 109.378 169.004 109.378C169.077 109.378 169.137 109.374 169.184 109.367C169.231 109.358 169.268 109.35 169.297 109.344L169.431 109.94C169.386 109.957 169.324 109.974 169.243 109.991C169.163 110.01 169.06 110.019 168.937 110.019C168.749 110.019 168.566 109.979 168.386 109.898C168.208 109.818 168.06 109.695 167.942 109.53C167.825 109.365 167.767 109.157 167.767 108.906V104.611ZM171.107 107.366V109.963H170.443V104.206H171.107V106.32H171.163C171.264 106.097 171.416 105.92 171.618 105.789C171.823 105.656 172.094 105.589 172.434 105.589C172.728 105.589 172.985 105.648 173.207 105.766C173.428 105.882 173.599 106.061 173.721 106.303C173.845 106.543 173.907 106.848 173.907 107.219V109.963H173.243V107.264C173.243 106.921 173.154 106.656 172.976 106.469C172.8 106.28 172.555 106.185 172.242 106.185C172.025 106.185 171.83 106.231 171.658 106.323C171.487 106.414 171.352 106.548 171.253 106.725C171.156 106.901 171.107 107.114 171.107 107.366ZM179.157 110.053C178.741 110.053 178.382 109.961 178.08 109.777C177.78 109.592 177.549 109.333 177.386 109.002C177.225 108.668 177.144 108.28 177.144 107.838C177.144 107.396 177.225 107.006 177.386 106.668C177.549 106.329 177.776 106.065 178.066 105.876C178.358 105.685 178.7 105.589 179.089 105.589C179.314 105.589 179.536 105.626 179.756 105.701C179.975 105.776 180.174 105.898 180.354 106.067C180.534 106.234 180.678 106.455 180.784 106.73C180.891 107.006 180.945 107.345 180.945 107.748V108.029H177.616V107.455H180.27C180.27 107.212 180.221 106.994 180.124 106.803C180.028 106.612 179.891 106.461 179.713 106.351C179.537 106.24 179.329 106.185 179.089 106.185C178.825 106.185 178.596 106.251 178.403 106.382C178.212 106.511 178.065 106.68 177.962 106.888C177.859 107.096 177.808 107.319 177.808 107.557V107.939C177.808 108.265 177.864 108.541 177.976 108.768C178.09 108.993 178.249 109.165 178.451 109.283C178.654 109.399 178.889 109.457 179.157 109.457C179.331 109.457 179.488 109.433 179.629 109.384C179.771 109.333 179.894 109.258 179.997 109.159C180.1 109.058 180.18 108.932 180.236 108.782L180.877 108.962C180.81 109.18 180.696 109.371 180.537 109.536C180.378 109.699 180.181 109.826 179.947 109.918C179.712 110.008 179.449 110.053 179.157 110.053ZM183.224 110.064C182.951 110.064 182.702 110.013 182.479 109.909C182.256 109.805 182.079 109.654 181.948 109.457C181.817 109.258 181.751 109.018 181.751 108.737C181.751 108.49 181.8 108.289 181.897 108.136C181.995 107.98 182.125 107.858 182.288 107.77C182.451 107.682 182.631 107.617 182.828 107.574C183.027 107.529 183.226 107.493 183.427 107.467C183.689 107.433 183.902 107.408 184.065 107.391C184.23 107.372 184.35 107.341 184.425 107.298C184.501 107.255 184.54 107.18 184.54 107.073V107.051C184.54 106.773 184.464 106.558 184.312 106.404C184.162 106.251 183.935 106.174 183.629 106.174C183.312 106.174 183.064 106.243 182.884 106.382C182.704 106.52 182.578 106.668 182.505 106.826L181.875 106.601C181.987 106.339 182.137 106.134 182.325 105.988C182.514 105.84 182.72 105.737 182.943 105.679C183.168 105.619 183.389 105.589 183.607 105.589C183.745 105.589 183.905 105.606 184.084 105.64C184.266 105.671 184.441 105.738 184.61 105.839C184.781 105.94 184.922 106.093 185.035 106.297C185.147 106.502 185.203 106.775 185.203 107.118V109.963H184.54V109.378H184.506C184.461 109.472 184.386 109.572 184.281 109.679C184.176 109.786 184.037 109.877 183.862 109.952C183.688 110.027 183.475 110.064 183.224 110.064ZM183.325 109.468C183.588 109.468 183.809 109.417 183.989 109.314C184.171 109.21 184.307 109.077 184.399 108.914C184.493 108.751 184.54 108.58 184.54 108.4V107.793C184.512 107.827 184.45 107.857 184.354 107.886C184.261 107.912 184.152 107.935 184.028 107.956C183.906 107.975 183.787 107.991 183.671 108.006C183.557 108.02 183.464 108.031 183.393 108.04C183.221 108.063 183.059 108.099 182.909 108.15C182.761 108.199 182.641 108.273 182.55 108.372C182.46 108.469 182.415 108.602 182.415 108.771C182.415 109.002 182.5 109.176 182.671 109.294C182.843 109.41 183.061 109.468 183.325 109.468ZM189.472 106.612L188.876 106.781C188.839 106.682 188.784 106.585 188.711 106.491C188.639 106.396 188.542 106.317 188.418 106.255C188.295 106.193 188.136 106.162 187.943 106.162C187.679 106.162 187.459 106.223 187.283 106.345C187.108 106.465 187.021 106.618 187.021 106.803C187.021 106.968 187.081 107.098 187.201 107.194C187.321 107.29 187.508 107.369 187.763 107.433L188.404 107.59C188.79 107.684 189.078 107.827 189.267 108.02C189.456 108.212 189.551 108.458 189.551 108.76C189.551 109.007 189.48 109.228 189.337 109.423C189.197 109.618 189 109.772 188.747 109.884C188.494 109.997 188.2 110.053 187.865 110.053C187.424 110.053 187.06 109.957 186.771 109.766C186.482 109.575 186.3 109.296 186.223 108.928L186.853 108.771C186.913 109.003 187.026 109.178 187.193 109.294C187.361 109.41 187.582 109.468 187.853 109.468C188.162 109.468 188.408 109.403 188.59 109.271C188.773 109.138 188.865 108.979 188.865 108.794C188.865 108.644 188.813 108.518 188.708 108.417C188.603 108.314 188.442 108.237 188.224 108.186L187.505 108.018C187.109 107.924 186.819 107.779 186.633 107.582C186.45 107.383 186.358 107.135 186.358 106.837C186.358 106.593 186.426 106.378 186.563 106.191C186.702 106.003 186.89 105.856 187.128 105.749C187.368 105.642 187.64 105.589 187.943 105.589C188.37 105.589 188.706 105.683 188.95 105.87C189.195 106.057 189.369 106.305 189.472 106.612ZM192.36 110.053C191.944 110.053 191.585 109.961 191.283 109.777C190.984 109.592 190.752 109.333 190.589 109.002C190.428 108.668 190.347 108.28 190.347 107.838C190.347 107.396 190.428 107.006 190.589 106.668C190.752 106.329 190.979 106.065 191.269 105.876C191.562 105.685 191.903 105.589 192.293 105.589C192.517 105.589 192.739 105.626 192.959 105.701C193.178 105.776 193.378 105.898 193.557 106.067C193.737 106.234 193.881 106.455 193.988 106.73C194.094 107.006 194.148 107.345 194.148 107.748V108.029H190.82V107.455H193.473C193.473 107.212 193.424 106.994 193.327 106.803C193.231 106.612 193.095 106.461 192.917 106.351C192.74 106.24 192.532 106.185 192.293 106.185C192.028 106.185 191.8 106.251 191.607 106.382C191.416 106.511 191.268 106.68 191.165 106.888C191.062 107.096 191.011 107.319 191.011 107.557V107.939C191.011 108.265 191.067 108.541 191.179 108.768C191.294 108.993 191.452 109.165 191.654 109.283C191.857 109.399 192.092 109.457 192.36 109.457C192.534 109.457 192.692 109.433 192.832 109.384C192.975 109.333 193.097 109.258 193.2 109.159C193.304 109.058 193.383 108.932 193.439 108.782L194.08 108.962C194.013 109.18 193.899 109.371 193.74 109.536C193.581 109.699 193.384 109.826 193.15 109.918C192.916 110.008 192.652 110.053 192.36 110.053Z" fill="#525252"/>
<path d="M86.4153 126.823C86.3815 126.538 86.2447 126.317 86.0049 126.16C85.765 126.002 85.4708 125.923 85.1222 125.923C84.8673 125.923 84.6443 125.965 84.4532 126.047C84.2639 126.13 84.1159 126.243 84.0091 126.387C83.9041 126.532 83.8516 126.696 83.8516 126.879C83.8516 127.033 83.8882 127.165 83.9613 127.276C84.0362 127.384 84.1318 127.475 84.248 127.548C84.3642 127.619 84.486 127.678 84.6134 127.725C84.7408 127.77 84.858 127.807 84.9648 127.835L85.5495 127.992C85.6994 128.032 85.8662 128.086 86.0498 128.155C86.2354 128.225 86.4124 128.319 86.5811 128.439C86.7516 128.557 86.8922 128.709 87.0028 128.895C87.1133 129.08 87.1686 129.308 87.1686 129.578C87.1686 129.889 87.0871 130.17 86.924 130.421C86.7629 130.672 86.5268 130.872 86.2157 131.02C85.9065 131.168 85.5307 131.242 85.0885 131.242C84.6762 131.242 84.3192 131.175 84.0175 131.042C83.7176 130.909 83.4815 130.724 83.3091 130.486C83.1386 130.248 83.0421 129.971 83.0196 129.656H83.7392C83.7579 129.874 83.831 130.054 83.9585 130.196C84.0878 130.337 84.2508 130.442 84.4476 130.511C84.6462 130.578 84.8598 130.612 85.0885 130.612C85.3546 130.612 85.5935 130.569 85.8053 130.483C86.017 130.395 86.1848 130.273 86.3084 130.117C86.4321 129.96 86.494 129.776 86.494 129.566C86.494 129.375 86.4406 129.22 86.3337 129.1C86.2269 128.98 86.0864 128.882 85.9121 128.808C85.7378 128.733 85.5495 128.667 85.3471 128.611L84.6387 128.408C84.189 128.279 83.8329 128.094 83.5705 127.855C83.3082 127.615 83.177 127.301 83.177 126.913C83.177 126.591 83.2641 126.309 83.4384 126.07C83.6146 125.828 83.8507 125.64 84.1468 125.507C84.4448 125.372 84.7774 125.305 85.1447 125.305C85.5157 125.305 85.8456 125.372 86.1342 125.505C86.4228 125.636 86.6514 125.816 86.82 126.044C86.9906 126.273 87.0805 126.532 87.0899 126.823H86.4153ZM90.0351 131.231C89.6191 131.231 89.2602 131.139 88.9585 130.955C88.6587 130.77 88.4272 130.511 88.2642 130.179C88.103 129.846 88.0224 129.458 88.0224 129.016C88.0224 128.573 88.103 128.183 88.2642 127.846C88.4272 127.507 88.654 127.243 88.9444 127.053C89.2368 126.862 89.5779 126.767 89.9676 126.767C90.1925 126.767 90.4146 126.804 90.6338 126.879C90.8531 126.954 91.0527 127.076 91.2326 127.245C91.4125 127.411 91.5559 127.633 91.6627 127.908C91.7695 128.183 91.8229 128.523 91.8229 128.926V129.207H88.4947V128.633H91.1483C91.1483 128.39 91.0995 128.172 91.0021 127.981C90.9065 127.79 90.7697 127.639 90.5917 127.529C90.4155 127.418 90.2075 127.363 89.9676 127.363C89.7034 127.363 89.4748 127.428 89.2818 127.559C89.0906 127.689 88.9435 127.857 88.8404 128.065C88.7374 128.273 88.6858 128.496 88.6858 128.734V129.117C88.6858 129.443 88.7421 129.719 88.8545 129.946C88.9688 130.171 89.1272 130.342 89.3295 130.46C89.5319 130.577 89.7671 130.635 90.0351 130.635C90.2094 130.635 90.3668 130.61 90.5074 130.562C90.6498 130.511 90.7725 130.436 90.8756 130.337C90.9787 130.235 91.0583 130.11 91.1145 129.96L91.7554 130.14C91.688 130.357 91.5746 130.548 91.4153 130.713C91.256 130.876 91.0592 131.004 90.825 131.096C90.5907 131.186 90.3274 131.231 90.0351 131.231ZM92.832 131.141V126.823H93.4729V127.475H93.5179C93.5966 127.261 93.7391 127.088 93.9452 126.955C94.1513 126.822 94.3837 126.755 94.6423 126.755C94.691 126.755 94.7519 126.756 94.825 126.758C94.8981 126.76 94.9534 126.763 94.9909 126.767V127.441C94.9684 127.436 94.9169 127.427 94.8363 127.416C94.7576 127.403 94.6742 127.396 94.5861 127.396C94.3762 127.396 94.1888 127.44 94.0239 127.529C93.8609 127.615 93.7316 127.735 93.636 127.888C93.5423 128.04 93.4954 128.213 93.4954 128.408V131.141H92.832ZM99.4393 126.823L97.8426 131.141H97.168L95.5713 126.823H96.291L97.4828 130.264H97.5278L98.7197 126.823H99.4393ZM100.315 131.141V126.823H100.978V131.141H100.315ZM100.652 126.103C100.523 126.103 100.411 126.059 100.318 125.971C100.226 125.883 100.18 125.777 100.18 125.654C100.18 125.53 100.226 125.424 100.318 125.336C100.411 125.248 100.523 125.204 100.652 125.204C100.782 125.204 100.892 125.248 100.984 125.336C101.078 125.424 101.124 125.53 101.124 125.654C101.124 125.777 101.078 125.883 100.984 125.971C100.892 126.059 100.782 126.103 100.652 126.103ZM103.947 131.231C103.543 131.231 103.194 131.135 102.902 130.944C102.609 130.753 102.384 130.489 102.227 130.154C102.07 129.819 101.991 129.435 101.991 129.004C101.991 128.566 102.072 128.179 102.233 127.843C102.396 127.506 102.622 127.243 102.913 127.053C103.205 126.862 103.546 126.767 103.936 126.767C104.24 126.767 104.513 126.823 104.757 126.935C105.001 127.048 105.2 127.205 105.356 127.408C105.511 127.61 105.608 127.846 105.645 128.116H104.982C104.931 127.919 104.819 127.745 104.645 127.593C104.472 127.439 104.24 127.363 103.947 127.363C103.689 127.363 103.462 127.43 103.267 127.565C103.074 127.698 102.923 127.886 102.815 128.13C102.708 128.372 102.654 128.656 102.654 128.982C102.654 129.315 102.707 129.606 102.812 129.853C102.919 130.101 103.068 130.293 103.262 130.429C103.456 130.566 103.685 130.635 103.947 130.635C104.12 130.635 104.276 130.605 104.417 130.545C104.557 130.485 104.676 130.399 104.774 130.286C104.871 130.174 104.941 130.039 104.982 129.881H105.645C105.608 130.136 105.515 130.366 105.367 130.57C105.221 130.772 105.027 130.934 104.785 131.053C104.545 131.172 104.266 131.231 103.947 131.231ZM108.425 131.231C108.009 131.231 107.65 131.139 107.349 130.955C107.049 130.77 106.817 130.511 106.654 130.179C106.493 129.846 106.413 129.458 106.413 129.016C106.413 128.573 106.493 128.183 106.654 127.846C106.817 127.507 107.044 127.243 107.335 127.053C107.627 126.862 107.968 126.767 108.358 126.767C108.583 126.767 108.805 126.804 109.024 126.879C109.243 126.954 109.443 127.076 109.623 127.245C109.803 127.411 109.946 127.633 110.053 127.908C110.16 128.183 110.213 128.523 110.213 128.926V129.207H106.885V128.633H109.538C109.538 128.39 109.49 128.172 109.392 127.981C109.297 127.79 109.16 127.639 108.982 127.529C108.806 127.418 108.598 127.363 108.358 127.363C108.094 127.363 107.865 127.428 107.672 127.559C107.481 127.689 107.334 127.857 107.231 128.065C107.128 128.273 107.076 128.496 107.076 128.734V129.117C107.076 129.443 107.132 129.719 107.245 129.946C107.359 130.171 107.517 130.342 107.72 130.46C107.922 130.577 108.157 130.635 108.425 130.635C108.6 130.635 108.757 130.61 108.898 130.562C109.04 130.511 109.163 130.436 109.266 130.337C109.369 130.235 109.448 130.11 109.505 129.96L110.146 130.14C110.078 130.357 109.965 130.548 109.805 130.713C109.646 130.876 109.449 131.004 109.215 131.096C108.981 131.186 108.718 131.231 108.425 131.231ZM113.538 131.141V125.384H115.484C115.935 125.384 116.304 125.465 116.591 125.628C116.88 125.789 117.093 126.008 117.232 126.283C117.371 126.559 117.44 126.866 117.44 127.205C117.44 127.544 117.371 127.853 117.232 128.13C117.095 128.407 116.884 128.629 116.597 128.793C116.31 128.956 115.943 129.038 115.495 129.038H114.101V128.42H115.472C115.782 128.42 116.03 128.366 116.217 128.259C116.405 128.153 116.541 128.008 116.625 127.826C116.711 127.643 116.754 127.436 116.754 127.205C116.754 126.975 116.711 126.769 116.625 126.587C116.541 126.405 116.404 126.263 116.215 126.16C116.025 126.055 115.774 126.002 115.461 126.002H114.236V131.141H113.538ZM118.473 131.141V126.823H119.114V127.475H119.159C119.238 127.261 119.38 127.088 119.586 126.955C119.792 126.822 120.025 126.755 120.283 126.755C120.332 126.755 120.393 126.756 120.466 126.758C120.539 126.76 120.595 126.763 120.632 126.767V127.441C120.61 127.436 120.558 127.427 120.477 127.416C120.399 127.403 120.315 127.396 120.227 127.396C120.017 127.396 119.83 127.44 119.665 127.529C119.502 127.615 119.373 127.735 119.277 127.888C119.183 128.04 119.137 128.213 119.137 128.408V131.141H118.473ZM123.041 131.231C122.651 131.231 122.309 131.138 122.015 130.952C121.723 130.767 121.494 130.507 121.329 130.174C121.166 129.84 121.085 129.45 121.085 129.004C121.085 128.555 121.166 128.162 121.329 127.826C121.494 127.491 121.723 127.231 122.015 127.045C122.309 126.859 122.651 126.767 123.041 126.767C123.431 126.767 123.772 126.859 124.064 127.045C124.358 127.231 124.587 127.491 124.75 127.826C124.915 128.162 124.997 128.555 124.997 129.004C124.997 129.45 124.915 129.84 124.75 130.174C124.587 130.507 124.358 130.767 124.064 130.952C123.772 131.138 123.431 131.231 123.041 131.231ZM123.041 130.635C123.337 130.635 123.581 130.559 123.772 130.407C123.963 130.255 124.105 130.056 124.196 129.808C124.288 129.561 124.334 129.293 124.334 129.004C124.334 128.716 124.288 128.447 124.196 128.198C124.105 127.948 123.963 127.747 123.772 127.593C123.581 127.439 123.337 127.363 123.041 127.363C122.745 127.363 122.501 127.439 122.31 127.593C122.119 127.747 121.978 127.948 121.886 128.198C121.794 128.447 121.748 128.716 121.748 129.004C121.748 129.293 121.794 129.561 121.886 129.808C121.978 130.056 122.119 130.255 122.31 130.407C122.501 130.559 122.745 130.635 123.041 130.635ZM129.386 126.823L127.789 131.141H127.115L125.518 126.823H126.238L127.43 130.264H127.475L128.667 126.823H129.386ZM130.262 131.141V126.823H130.925V131.141H130.262ZM130.599 126.103C130.47 126.103 130.358 126.059 130.265 125.971C130.173 125.883 130.127 125.777 130.127 125.654C130.127 125.53 130.173 125.424 130.265 125.336C130.358 125.248 130.47 125.204 130.599 125.204C130.728 125.204 130.839 125.248 130.931 125.336C131.024 125.424 131.071 125.53 131.071 125.654C131.071 125.777 131.024 125.883 130.931 125.971C130.839 126.059 130.728 126.103 130.599 126.103ZM133.771 131.231C133.411 131.231 133.093 131.14 132.818 130.958C132.542 130.774 132.327 130.516 132.171 130.182C132.016 129.847 131.938 129.45 131.938 128.993C131.938 128.54 132.016 128.146 132.171 127.812C132.327 127.479 132.543 127.221 132.82 127.039C133.098 126.858 133.418 126.767 133.782 126.767C134.063 126.767 134.285 126.814 134.448 126.907C134.613 126.999 134.738 127.104 134.825 127.222C134.913 127.338 134.981 127.434 135.03 127.509H135.086V125.384H135.75V131.141H135.109V130.477H135.03C134.981 130.556 134.912 130.655 134.822 130.775C134.732 130.893 134.604 130.999 134.437 131.093C134.27 131.185 134.048 131.231 133.771 131.231ZM133.861 130.635C134.127 130.635 134.352 130.565 134.535 130.427C134.719 130.286 134.858 130.092 134.954 129.845C135.05 129.596 135.097 129.308 135.097 128.982C135.097 128.659 135.051 128.377 134.957 128.136C134.863 127.892 134.724 127.703 134.541 127.568C134.357 127.431 134.13 127.363 133.861 127.363C133.579 127.363 133.345 127.435 133.158 127.579C132.972 127.722 132.833 127.915 132.739 128.161C132.647 128.405 132.601 128.678 132.601 128.982C132.601 129.289 132.648 129.568 132.742 129.819C132.837 130.069 132.978 130.267 133.163 130.415C133.351 130.562 133.583 130.635 133.861 130.635ZM138.867 131.231C138.451 131.231 138.092 131.139 137.79 130.955C137.49 130.77 137.259 130.511 137.096 130.179C136.935 129.846 136.854 129.458 136.854 129.016C136.854 128.573 136.935 128.183 137.096 127.846C137.259 127.507 137.486 127.243 137.776 127.053C138.069 126.862 138.41 126.767 138.799 126.767C139.024 126.767 139.246 126.804 139.466 126.879C139.685 126.954 139.884 127.076 140.064 127.245C140.244 127.411 140.388 127.633 140.494 127.908C140.601 128.183 140.655 128.523 140.655 128.926V129.207H137.326V128.633H139.98C139.98 128.39 139.931 128.172 139.834 127.981C139.738 127.79 139.601 127.639 139.423 127.529C139.247 127.418 139.039 127.363 138.799 127.363C138.535 127.363 138.307 127.428 138.114 127.559C137.922 127.689 137.775 127.857 137.672 128.065C137.569 128.273 137.518 128.496 137.518 128.734V129.117C137.518 129.443 137.574 129.719 137.686 129.946C137.801 130.171 137.959 130.342 138.161 130.46C138.364 130.577 138.599 130.635 138.867 130.635C139.041 130.635 139.199 130.61 139.339 130.562C139.482 130.511 139.604 130.436 139.707 130.337C139.81 130.235 139.89 130.11 139.946 129.96L140.587 130.14C140.52 130.357 140.406 130.548 140.247 130.713C140.088 130.876 139.891 131.004 139.657 131.096C139.423 131.186 139.159 131.231 138.867 131.231ZM141.664 131.141V126.823H142.305V127.475H142.35C142.428 127.261 142.571 127.088 142.777 126.955C142.983 126.822 143.215 126.755 143.474 126.755C143.523 126.755 143.584 126.756 143.657 126.758C143.73 126.76 143.785 126.763 143.823 126.767V127.441C143.8 127.436 143.749 127.427 143.668 127.416C143.589 127.403 143.506 127.396 143.418 127.396C143.208 127.396 143.021 127.44 142.856 127.529C142.693 127.615 142.563 127.735 142.468 127.888C142.374 128.04 142.327 128.213 142.327 128.408V131.141H141.664Z" fill="#525252"/>
<rect x="82.8525" y="138.947" width="230.687" height="31.0976" rx="6.50222" stroke="#E5E7EB" stroke-width="0.56541"/>
<path d="M90.151 157.842V151.262H94.1217V151.969H90.9477V154.192H93.9161V154.899H90.9477V157.135H94.1731V157.842H90.151ZM95.5577 157.842V151.262H99.5284V151.969H96.3544V154.192H99.3228V154.899H96.3544V157.135H99.5798V157.842H95.5577ZM102.995 157.842H100.964V151.262H103.085C103.723 151.262 104.269 151.394 104.723 151.658C105.177 151.919 105.525 152.295 105.767 152.785C106.009 153.274 106.13 153.858 106.13 154.539C106.13 155.225 106.008 155.815 105.764 156.309C105.52 156.802 105.164 157.181 104.697 157.447C104.231 157.71 103.663 157.842 102.995 157.842ZM101.761 157.135H102.943C103.487 157.135 103.938 157.03 104.296 156.82C104.654 156.61 104.92 156.312 105.096 155.924C105.271 155.536 105.359 155.075 105.359 154.539C105.359 154.008 105.272 153.551 105.099 153.168C104.926 152.782 104.666 152.486 104.322 152.281C103.977 152.073 103.547 151.969 103.033 151.969H101.761V157.135ZM112.761 153.319H111.964C111.917 153.089 111.835 152.888 111.717 152.715C111.601 152.541 111.46 152.395 111.293 152.278C111.128 152.158 110.945 152.068 110.743 152.008C110.542 151.948 110.332 151.918 110.114 151.918C109.715 151.918 109.355 152.019 109.031 152.22C108.71 152.421 108.454 152.718 108.263 153.11C108.075 153.502 107.981 153.982 107.981 154.552C107.981 155.122 108.075 155.603 108.263 155.995C108.454 156.387 108.71 156.683 109.031 156.884C109.355 157.086 109.715 157.186 110.114 157.186C110.332 157.186 110.542 157.156 110.743 157.096C110.945 157.037 111.128 156.948 111.293 156.83C111.46 156.71 111.601 156.563 111.717 156.39C111.835 156.214 111.917 156.013 111.964 155.786H112.761C112.701 156.122 112.592 156.423 112.433 156.688C112.275 156.954 112.078 157.18 111.842 157.366C111.607 157.551 111.342 157.691 111.049 157.787C110.757 157.884 110.446 157.932 110.114 157.932C109.553 157.932 109.054 157.795 108.617 157.521C108.18 157.246 107.836 156.857 107.586 156.351C107.335 155.846 107.21 155.246 107.21 154.552C107.21 153.858 107.335 153.259 107.586 152.753C107.836 152.248 108.18 151.858 108.617 151.584C109.054 151.31 109.553 151.173 110.114 151.173C110.446 151.173 110.757 151.221 111.049 151.317C111.342 151.413 111.607 151.555 111.842 151.741C112.078 151.925 112.275 152.15 112.433 152.416C112.592 152.679 112.701 152.98 112.761 153.319Z" fill="#101010"/>
<g clip-path="url(#clip0_1998_33194)">
<path d="M291.392 152.801L294.785 156.193L298.177 152.801" stroke="#D1D5DB" stroke-width="0.848115" stroke-linecap="round" stroke-linejoin="round"/>
</g>
<path d="M86.4153 184.186C86.3815 183.901 86.2447 183.68 86.0049 183.523C85.765 183.365 85.4708 183.287 85.1222 183.287C84.8673 183.287 84.6443 183.328 84.4532 183.41C84.2639 183.493 84.1159 183.606 84.0091 183.751C83.9041 183.895 83.8516 184.059 83.8516 184.242C83.8516 184.396 83.8882 184.528 83.9613 184.639C84.0362 184.747 84.1318 184.838 84.248 184.911C84.3642 184.983 84.486 185.042 84.6134 185.089C84.7408 185.134 84.858 185.17 84.9648 185.198L85.5495 185.356C85.6994 185.395 85.8662 185.449 86.0498 185.519C86.2354 185.588 86.4124 185.683 86.5811 185.803C86.7516 185.921 86.8922 186.072 87.0028 186.258C87.1133 186.443 87.1686 186.671 87.1686 186.941C87.1686 187.252 87.0871 187.533 86.924 187.784C86.7629 188.035 86.5268 188.235 86.2157 188.383C85.9065 188.531 85.5307 188.605 85.0885 188.605C84.6762 188.605 84.3192 188.539 84.0175 188.406C83.7176 188.272 83.4815 188.087 83.3091 187.849C83.1386 187.611 83.0421 187.335 83.0196 187.02H83.7392C83.7579 187.237 83.831 187.417 83.9585 187.559C84.0878 187.7 84.2508 187.805 84.4476 187.874C84.6462 187.942 84.8598 187.975 85.0885 187.975C85.3546 187.975 85.5935 187.932 85.8053 187.846C86.017 187.758 86.1848 187.636 86.3084 187.481C86.4321 187.323 86.494 187.14 86.494 186.93C86.494 186.739 86.4406 186.583 86.3337 186.463C86.2269 186.343 86.0864 186.246 85.9121 186.171C85.7378 186.096 85.5495 186.03 85.3471 185.974L84.6387 185.772C84.189 185.642 83.8329 185.458 83.5705 185.218C83.3082 184.978 83.177 184.664 83.177 184.276C83.177 183.954 83.2641 183.673 83.4384 183.433C83.6146 183.191 83.8507 183.004 84.1468 182.871C84.4448 182.736 84.7774 182.668 85.1447 182.668C85.5157 182.668 85.8456 182.735 86.1342 182.868C86.4228 182.999 86.6514 183.179 86.82 183.408C86.9906 183.636 87.0805 183.896 87.0899 184.186H86.4153ZM90.0351 188.594C89.6191 188.594 89.2602 188.502 88.9585 188.318C88.6587 188.133 88.4272 187.874 88.2642 187.543C88.103 187.209 88.0224 186.821 88.0224 186.379C88.0224 185.937 88.103 185.547 88.2642 185.209C88.4272 184.87 88.654 184.606 88.9444 184.417C89.2368 184.226 89.5779 184.13 89.9676 184.13C90.1925 184.13 90.4146 184.167 90.6338 184.242C90.8531 184.317 91.0527 184.439 91.2326 184.608C91.4125 184.775 91.5559 184.996 91.6627 185.271C91.7695 185.547 91.8229 185.886 91.8229 186.289V186.57H88.4947V185.997H91.1483C91.1483 185.753 91.0995 185.536 91.0021 185.344C90.9065 185.153 90.7697 185.002 90.5917 184.892C90.4155 184.781 90.2075 184.726 89.9676 184.726C89.7034 184.726 89.4748 184.792 89.2818 184.923C89.0906 185.052 88.9435 185.221 88.8404 185.429C88.7374 185.637 88.6858 185.86 88.6858 186.098V186.48C88.6858 186.806 88.7421 187.082 88.8545 187.309C88.9688 187.534 89.1272 187.706 89.3295 187.824C89.5319 187.94 89.7671 187.998 90.0351 187.998C90.2094 187.998 90.3668 187.974 90.5074 187.925C90.6498 187.874 90.7725 187.799 90.8756 187.7C90.9787 187.599 91.0583 187.473 91.1145 187.323L91.7554 187.503C91.688 187.721 91.5746 187.912 91.4153 188.077C91.256 188.24 91.0592 188.367 90.825 188.459C90.5907 188.549 90.3274 188.594 90.0351 188.594ZM93.4954 182.747V188.504H92.832V182.747H93.4954ZM96.5208 188.594C96.1047 188.594 95.7459 188.502 95.4442 188.318C95.1443 188.133 94.9129 187.874 94.7498 187.543C94.5887 187.209 94.5081 186.821 94.5081 186.379C94.5081 185.937 94.5887 185.547 94.7498 185.209C94.9129 184.87 95.1396 184.606 95.4301 184.417C95.7224 184.226 96.0635 184.13 96.4533 184.13C96.6782 184.13 96.9002 184.167 97.1195 184.242C97.3388 184.317 97.5383 184.439 97.7182 184.608C97.8981 184.775 98.0415 184.996 98.1483 185.271C98.2551 185.547 98.3085 185.886 98.3085 186.289V186.57H94.9803V185.997H97.6339C97.6339 185.753 97.5852 185.536 97.4877 185.344C97.3922 185.153 97.2554 185.002 97.0773 184.892C96.9012 184.781 96.6932 184.726 96.4533 184.726C96.1891 184.726 95.9604 184.792 95.7674 184.923C95.5763 185.052 95.4292 185.221 95.3261 185.429C95.223 185.637 95.1715 185.86 95.1715 186.098V186.48C95.1715 186.806 95.2277 187.082 95.3401 187.309C95.4545 187.534 95.6128 187.706 95.8152 187.824C96.0176 187.94 96.2528 187.998 96.5208 187.998C96.695 187.998 96.8525 187.974 96.993 187.925C97.1354 187.874 97.2582 187.799 97.3612 187.7C97.4643 187.599 97.544 187.473 97.6002 187.323L98.2411 187.503C98.1736 187.721 98.0602 187.912 97.901 188.077C97.7417 188.24 97.5449 188.367 97.3106 188.459C97.0764 188.549 96.8131 188.594 96.5208 188.594ZM101.072 188.594C100.667 188.594 100.318 188.498 100.026 188.307C99.7337 188.116 99.5088 187.853 99.3514 187.517C99.194 187.182 99.1153 186.799 99.1153 186.368C99.1153 185.929 99.1959 185.542 99.357 185.207C99.5201 184.869 99.7468 184.606 100.037 184.417C100.33 184.226 100.671 184.13 101.061 184.13C101.364 184.13 101.638 184.186 101.881 184.299C102.125 184.411 102.325 184.569 102.48 184.771C102.636 184.973 102.732 185.209 102.77 185.479H102.106C102.056 185.283 101.943 185.108 101.769 184.956C101.596 184.803 101.364 184.726 101.072 184.726C100.813 184.726 100.586 184.793 100.391 184.928C100.198 185.061 100.048 185.25 99.9389 185.493C99.8321 185.735 99.7787 186.019 99.7787 186.345C99.7787 186.679 99.8312 186.969 99.9361 187.216C100.043 187.464 100.193 187.656 100.386 187.793C100.581 187.93 100.809 187.998 101.072 187.998C101.244 187.998 101.401 187.968 101.541 187.908C101.682 187.848 101.801 187.762 101.898 187.649C101.996 187.537 102.065 187.402 102.106 187.245H102.77C102.732 187.499 102.639 187.729 102.491 187.933C102.345 188.136 102.151 188.297 101.909 188.417C101.67 188.535 101.39 188.594 101.072 188.594ZM105.617 184.186V184.748H103.38V184.186H105.617ZM104.032 183.152H104.695V187.267C104.695 187.454 104.722 187.595 104.777 187.689C104.833 187.781 104.904 187.842 104.99 187.874C105.078 187.904 105.171 187.919 105.269 187.919C105.342 187.919 105.402 187.915 105.448 187.908C105.495 187.899 105.533 187.891 105.561 187.885L105.696 188.481C105.651 188.498 105.588 188.515 105.507 188.532C105.427 188.551 105.325 188.56 105.201 188.56C105.014 188.56 104.83 188.52 104.65 188.439C104.472 188.359 104.324 188.236 104.206 188.071C104.09 187.906 104.032 187.698 104.032 187.447V183.152ZM108.931 182.747H109.763L111.72 187.526H111.787L113.744 182.747H114.576V188.504H113.924V184.13H113.867L112.068 188.504H111.439L109.64 184.13H109.583V188.504H108.931V182.747ZM117.694 188.594C117.278 188.594 116.919 188.502 116.617 188.318C116.317 188.133 116.086 187.874 115.923 187.543C115.762 187.209 115.681 186.821 115.681 186.379C115.681 185.937 115.762 185.547 115.923 185.209C116.086 184.87 116.313 184.606 116.603 184.417C116.896 184.226 117.237 184.13 117.626 184.13C117.851 184.13 118.073 184.167 118.293 184.242C118.512 184.317 118.711 184.439 118.891 184.608C119.071 184.775 119.215 184.996 119.321 185.271C119.428 185.547 119.482 185.886 119.482 186.289V186.57H116.153V185.997H118.807C118.807 185.753 118.758 185.536 118.661 185.344C118.565 185.153 118.428 185.002 118.25 184.892C118.074 184.781 117.866 184.726 117.626 184.726C117.362 184.726 117.134 184.792 116.94 184.923C116.749 185.052 116.602 185.221 116.499 185.429C116.396 185.637 116.345 185.86 116.345 186.098V186.48C116.345 186.806 116.401 187.082 116.513 187.309C116.628 187.534 116.786 187.706 116.988 187.824C117.191 187.94 117.426 187.998 117.694 187.998C117.868 187.998 118.026 187.974 118.166 187.925C118.308 187.874 118.431 187.799 118.534 187.7C118.637 187.599 118.717 187.473 118.773 187.323L119.414 187.503C119.347 187.721 119.233 187.912 119.074 188.077C118.915 188.24 118.718 188.367 118.484 188.459C118.249 188.549 117.986 188.594 117.694 188.594ZM122.368 184.186V184.748H120.131V184.186H122.368ZM120.783 183.152H121.446V187.267C121.446 187.454 121.474 187.595 121.528 187.689C121.584 187.781 121.655 187.842 121.742 187.874C121.83 187.904 121.922 187.919 122.02 187.919C122.093 187.919 122.153 187.915 122.2 187.908C122.247 187.899 122.284 187.891 122.312 187.885L122.447 188.481C122.402 188.498 122.339 188.515 122.259 188.532C122.178 188.551 122.076 188.56 121.952 188.56C121.765 188.56 121.581 188.52 121.402 188.439C121.223 188.359 121.075 188.236 120.957 188.071C120.841 187.906 120.783 187.698 120.783 187.447V183.152ZM125.13 188.594C124.714 188.594 124.355 188.502 124.054 188.318C123.754 188.133 123.522 187.874 123.359 187.543C123.198 187.209 123.118 186.821 123.118 186.379C123.118 185.937 123.198 185.547 123.359 185.209C123.522 184.87 123.749 184.606 124.04 184.417C124.332 184.226 124.673 184.13 125.063 184.13C125.288 184.13 125.51 184.167 125.729 184.242C125.948 184.317 126.148 184.439 126.328 184.608C126.508 184.775 126.651 184.996 126.758 185.271C126.865 185.547 126.918 185.886 126.918 186.289V186.57H123.59V185.997H126.243C126.243 185.753 126.195 185.536 126.097 185.344C126.002 185.153 125.865 185.002 125.687 184.892C125.511 184.781 125.303 184.726 125.063 184.726C124.799 184.726 124.57 184.792 124.377 184.923C124.186 185.052 124.039 185.221 123.936 185.429C123.833 185.637 123.781 185.86 123.781 186.098V186.48C123.781 186.806 123.837 187.082 123.95 187.309C124.064 187.534 124.222 187.706 124.425 187.824C124.627 187.94 124.862 187.998 125.13 187.998C125.305 187.998 125.462 187.974 125.603 187.925C125.745 187.874 125.868 187.799 125.971 187.7C126.074 187.599 126.153 187.473 126.21 187.323L126.851 187.503C126.783 187.721 126.67 187.912 126.51 188.077C126.351 188.24 126.154 188.367 125.92 188.459C125.686 188.549 125.423 188.594 125.13 188.594ZM127.927 188.504V184.186H128.568V184.838H128.613C128.692 184.625 128.834 184.451 129.04 184.318C129.247 184.185 129.479 184.119 129.738 184.119C129.786 184.119 129.847 184.12 129.92 184.122C129.993 184.123 130.049 184.126 130.086 184.13V184.805C130.064 184.799 130.012 184.791 129.931 184.779C129.853 184.766 129.769 184.76 129.681 184.76C129.471 184.76 129.284 184.804 129.119 184.892C128.956 184.978 128.827 185.098 128.731 185.252C128.637 185.403 128.591 185.577 128.591 185.772V188.504H127.927ZM132.874 183.365V182.747H137.192V183.365H135.381V188.504H134.684V183.365H132.874ZM138.11 190.123C137.998 190.123 137.897 190.114 137.809 190.095C137.721 190.078 137.66 190.061 137.627 190.044L137.795 189.46C137.956 189.501 138.099 189.516 138.222 189.505C138.346 189.493 138.456 189.438 138.551 189.339C138.649 189.241 138.738 189.083 138.818 188.864L138.942 188.526L137.345 184.186H138.065L139.257 187.627H139.302L140.494 184.186H141.213L139.381 189.134C139.298 189.357 139.196 189.541 139.074 189.687C138.952 189.835 138.811 189.945 138.65 190.016C138.49 190.087 138.311 190.123 138.11 190.123ZM142.089 190.123V184.186H142.73V184.872H142.809C142.857 184.797 142.925 184.702 143.011 184.585C143.099 184.467 143.225 184.362 143.388 184.271C143.553 184.177 143.776 184.13 144.057 184.13C144.42 184.13 144.741 184.221 145.018 184.403C145.295 184.584 145.512 184.842 145.667 185.176C145.823 185.509 145.901 185.903 145.901 186.356C145.901 186.814 145.823 187.21 145.667 187.545C145.512 187.879 145.296 188.138 145.021 188.321C144.745 188.503 144.428 188.594 144.068 188.594C143.791 188.594 143.569 188.548 143.402 188.456C143.235 188.362 143.107 188.257 143.017 188.138C142.927 188.019 142.857 187.919 142.809 187.841H142.752V190.123H142.089ZM142.741 186.345C142.741 186.671 142.789 186.959 142.884 187.208C142.98 187.455 143.12 187.649 143.303 187.79C143.487 187.929 143.712 187.998 143.978 187.998C144.255 187.998 144.487 187.925 144.672 187.779C144.86 187.631 145 187.432 145.094 187.183C145.19 186.932 145.237 186.652 145.237 186.345C145.237 186.041 145.19 185.768 145.097 185.524C145.005 185.279 144.865 185.085 144.678 184.942C144.492 184.798 144.259 184.726 143.978 184.726C143.708 184.726 143.481 184.794 143.298 184.931C143.114 185.066 142.975 185.255 142.882 185.499C142.788 185.741 142.741 186.023 142.741 186.345ZM148.723 188.594C148.307 188.594 147.948 188.502 147.646 188.318C147.346 188.133 147.115 187.874 146.952 187.543C146.791 187.209 146.71 186.821 146.71 186.379C146.71 185.937 146.791 185.547 146.952 185.209C147.115 184.87 147.342 184.606 147.632 184.417C147.925 184.226 148.266 184.13 148.655 184.13C148.88 184.13 149.102 184.167 149.322 184.242C149.541 184.317 149.74 184.439 149.92 184.608C150.1 184.775 150.244 184.996 150.35 185.271C150.457 185.547 150.511 185.886 150.511 186.289V186.57H147.182V185.997H149.836C149.836 185.753 149.787 185.536 149.69 185.344C149.594 185.153 149.458 185.002 149.279 184.892C149.103 184.781 148.895 184.726 148.655 184.726C148.391 184.726 148.163 184.792 147.97 184.923C147.778 185.052 147.631 185.221 147.528 185.429C147.425 185.637 147.374 185.86 147.374 186.098V186.48C147.374 186.806 147.43 187.082 147.542 187.309C147.657 187.534 147.815 187.706 148.017 187.824C148.22 187.94 148.455 187.998 148.723 187.998C148.897 187.998 149.055 187.974 149.195 187.925C149.338 187.874 149.46 187.799 149.563 187.7C149.666 187.599 149.746 187.473 149.802 187.323L150.443 187.503C150.376 187.721 150.262 187.912 150.103 188.077C149.944 188.24 149.747 188.367 149.513 188.459C149.279 188.549 149.015 188.594 148.723 188.594Z" fill="#525252"/>
<path d="M82.5698 201.789C82.5698 198.607 85.1494 196.027 88.3315 196.027H108.116C111.298 196.027 113.878 198.607 113.878 201.789C113.878 204.971 111.298 207.551 108.116 207.551H88.3315C85.1494 207.551 82.5698 204.971 82.5698 201.789Z" fill="#EDF9EB"/>
<path d="M88.7218 204.289V200.177H90.1113C90.4338 200.177 90.6975 200.235 90.9023 200.352C91.1085 200.467 91.2611 200.623 91.3601 200.819C91.4592 201.016 91.5087 201.236 91.5087 201.478C91.5087 201.72 91.4592 201.941 91.3601 202.139C91.2624 202.337 91.1112 202.495 90.9064 202.613C90.7016 202.729 90.4392 202.787 90.1193 202.787H89.1234V202.345H90.1032C90.3241 202.345 90.5014 202.307 90.6353 202.231C90.7692 202.155 90.8662 202.052 90.9264 201.922C90.988 201.791 91.0188 201.643 91.0188 201.478C91.0188 201.313 90.988 201.166 90.9264 201.036C90.8662 200.907 90.7685 200.805 90.6333 200.731C90.4981 200.656 90.3187 200.619 90.0952 200.619H89.2198V204.289H88.7218ZM92.1335 204.289V201.205H92.5913V201.671H92.6234C92.6797 201.518 92.7814 201.394 92.9286 201.299C93.0759 201.204 93.2419 201.157 93.4266 201.157C93.4614 201.157 93.5049 201.157 93.5571 201.159C93.6093 201.16 93.6488 201.162 93.6755 201.165V201.647C93.6595 201.643 93.6227 201.637 93.5651 201.629C93.5089 201.619 93.4493 201.615 93.3864 201.615C93.2365 201.615 93.1026 201.646 92.9848 201.709C92.8684 201.771 92.776 201.856 92.7078 201.966C92.6408 202.074 92.6074 202.198 92.6074 202.337V204.289H92.1335ZM95.3233 204.353C95.0262 204.353 94.7699 204.288 94.5543 204.157C94.3402 204.024 94.1749 203.839 94.0584 203.602C93.9433 203.364 93.8857 203.087 93.8857 202.771C93.8857 202.455 93.9433 202.177 94.0584 201.936C94.1749 201.694 94.3368 201.505 94.5443 201.37C94.7531 201.233 94.9967 201.165 95.2752 201.165C95.4358 201.165 95.5944 201.192 95.751 201.245C95.9076 201.299 96.0502 201.386 96.1787 201.506C96.3072 201.625 96.4096 201.783 96.4859 201.98C96.5622 202.177 96.6003 202.419 96.6003 202.707V202.908H94.223V202.498H96.1185C96.1185 202.324 96.0837 202.169 96.014 202.032C95.9458 201.896 95.8481 201.788 95.7209 201.709C95.5951 201.63 95.4465 201.591 95.2752 201.591C95.0864 201.591 94.9231 201.637 94.7852 201.731C94.6487 201.823 94.5436 201.944 94.47 202.092C94.3964 202.241 94.3596 202.4 94.3596 202.57V202.843C94.3596 203.076 94.3997 203.274 94.4801 203.436C94.5617 203.596 94.6748 203.719 94.8194 203.803C94.9639 203.886 95.1319 203.928 95.3233 203.928C95.4478 203.928 95.5603 203.91 95.6607 203.875C95.7624 203.839 95.8501 203.786 95.9237 203.715C95.9973 203.643 96.0542 203.553 96.0944 203.446L96.5522 203.574C96.504 203.73 96.423 203.866 96.3092 203.984C96.1954 204.1 96.0549 204.191 95.8876 204.257C95.7202 204.321 95.5322 204.353 95.3233 204.353ZM97.2081 205.446V201.205H97.6659V201.695H97.7221C97.7569 201.641 97.8051 201.573 97.8667 201.49C97.9296 201.406 98.0192 201.331 98.1357 201.265C98.2535 201.198 98.4128 201.165 98.6136 201.165C98.8733 201.165 99.1021 201.23 99.3003 201.36C99.4984 201.489 99.653 201.674 99.7641 201.912C99.8752 202.15 99.9307 202.431 99.9307 202.755C99.9307 203.082 99.8752 203.365 99.7641 203.604C99.653 203.843 99.499 204.027 99.3023 204.159C99.1055 204.288 98.8786 204.353 98.6216 204.353C98.4235 204.353 98.2649 204.321 98.1457 204.255C98.0266 204.188 97.9349 204.112 97.8707 204.028C97.8064 203.942 97.7569 203.871 97.7221 203.815H97.6819V205.446H97.2081ZM97.6739 202.747C97.6739 202.98 97.708 203.185 97.7763 203.363C97.8446 203.54 97.9443 203.679 98.0755 203.779C98.2066 203.878 98.3673 203.928 98.5574 203.928C98.7555 203.928 98.9208 203.875 99.0533 203.771C99.1871 203.665 99.2875 203.523 99.3545 203.345C99.4227 203.166 99.4569 202.967 99.4569 202.747C99.4569 202.53 99.4234 202.335 99.3565 202.161C99.2909 201.985 99.1912 201.847 99.0573 201.745C98.9248 201.642 98.7581 201.591 98.5574 201.591C98.3646 201.591 98.2026 201.639 98.0715 201.737C97.9403 201.833 97.8412 201.969 97.7743 202.143C97.7074 202.315 97.6739 202.517 97.6739 202.747ZM101.448 204.361C101.253 204.361 101.075 204.325 100.916 204.251C100.757 204.176 100.63 204.068 100.536 203.928C100.443 203.786 100.396 203.614 100.396 203.414C100.396 203.237 100.431 203.094 100.5 202.984C100.57 202.873 100.663 202.786 100.779 202.723C100.896 202.66 101.024 202.613 101.165 202.582C101.307 202.55 101.449 202.525 101.593 202.506C101.78 202.482 101.932 202.464 102.048 202.452C102.166 202.438 102.252 202.416 102.305 202.386C102.36 202.355 102.388 202.301 102.388 202.225V202.209C102.388 202.011 102.333 201.857 102.225 201.747C102.118 201.637 101.955 201.582 101.737 201.582C101.511 201.582 101.334 201.632 101.205 201.731C101.077 201.83 100.986 201.936 100.934 202.048L100.484 201.888C100.565 201.7 100.672 201.554 100.805 201.45C100.941 201.344 101.088 201.271 101.247 201.229C101.408 201.186 101.566 201.165 101.721 201.165C101.82 201.165 101.934 201.177 102.062 201.201C102.192 201.224 102.317 201.271 102.438 201.344C102.56 201.416 102.661 201.525 102.741 201.671C102.821 201.817 102.862 202.012 102.862 202.257V204.289H102.388V203.871H102.364C102.331 203.938 102.278 204.01 102.203 204.086C102.128 204.163 102.028 204.227 101.904 204.281C101.779 204.335 101.627 204.361 101.448 204.361ZM101.52 203.936C101.708 203.936 101.866 203.899 101.994 203.825C102.124 203.752 102.222 203.657 102.287 203.54C102.354 203.424 102.388 203.301 102.388 203.173V202.739C102.368 202.763 102.323 202.785 102.255 202.805C102.188 202.824 102.111 202.841 102.022 202.855C101.935 202.869 101.85 202.881 101.767 202.892C101.686 202.901 101.619 202.909 101.568 202.916C101.445 202.932 101.33 202.958 101.223 202.994C101.117 203.029 101.032 203.082 100.966 203.153C100.902 203.222 100.87 203.317 100.87 203.438C100.87 203.602 100.931 203.727 101.052 203.811C101.176 203.894 101.332 203.936 101.52 203.936ZM103.613 204.289V201.205H104.087V204.289H103.613ZM103.854 200.691C103.762 200.691 103.682 200.66 103.615 200.597C103.55 200.534 103.517 200.458 103.517 200.37C103.517 200.281 103.55 200.206 103.615 200.143C103.682 200.08 103.762 200.048 103.854 200.048C103.947 200.048 104.026 200.08 104.091 200.143C104.158 200.206 104.192 200.281 104.192 200.37C104.192 200.458 104.158 200.534 104.091 200.597C104.026 200.66 103.947 200.691 103.854 200.691ZM106.007 204.353C105.75 204.353 105.523 204.288 105.326 204.159C105.129 204.027 104.975 203.843 104.864 203.604C104.753 203.365 104.697 203.082 104.697 202.755C104.697 202.431 104.753 202.15 104.864 201.912C104.975 201.674 105.13 201.489 105.328 201.36C105.526 201.23 105.755 201.165 106.015 201.165C106.215 201.165 106.374 201.198 106.49 201.265C106.608 201.331 106.698 201.406 106.759 201.49C106.822 201.573 106.871 201.641 106.906 201.695H106.946V200.177H107.42V204.289H106.962V203.815H106.906C106.871 203.871 106.822 203.942 106.757 204.028C106.693 204.112 106.602 204.188 106.482 204.255C106.363 204.321 106.205 204.353 106.007 204.353ZM106.071 203.928C106.261 203.928 106.422 203.878 106.553 203.779C106.684 203.679 106.784 203.54 106.852 203.363C106.92 203.185 106.954 202.98 106.954 202.747C106.954 202.517 106.921 202.315 106.854 202.143C106.787 201.969 106.688 201.833 106.557 201.737C106.426 201.639 106.264 201.591 106.071 201.591C105.87 201.591 105.703 201.642 105.569 201.745C105.436 201.847 105.337 201.985 105.27 202.161C105.204 202.335 105.171 202.53 105.171 202.747C105.171 202.967 105.205 203.166 105.272 203.345C105.34 203.523 105.44 203.665 105.573 203.771C105.707 203.875 105.873 203.928 106.071 203.928Z" fill="#525252"/>
<path d="M127.448 201.789C127.448 198.607 130.027 196.027 133.209 196.027H155.994C159.176 196.027 161.756 198.607 161.756 201.789C161.756 204.971 159.176 207.551 155.994 207.551H133.209C130.027 207.551 127.448 204.971 127.448 201.789Z" fill="#00613A"/>
<path d="M133.6 204.289V200.177H134.989C135.312 200.177 135.575 200.235 135.78 200.352C135.986 200.467 136.139 200.623 136.238 200.819C136.337 201.016 136.387 201.236 136.387 201.478C136.387 201.72 136.337 201.941 136.238 202.139C136.14 202.337 135.989 202.495 135.784 202.613C135.579 202.729 135.317 202.787 134.997 202.787H134.001V202.345H134.981C135.202 202.345 135.379 202.307 135.513 202.231C135.647 202.155 135.744 202.052 135.804 201.922C135.866 201.791 135.897 201.643 135.897 201.478C135.897 201.313 135.866 201.166 135.804 201.036C135.744 200.907 135.646 200.805 135.511 200.731C135.376 200.656 135.197 200.619 134.973 200.619H134.098V204.289H133.6ZM138.231 204.353C137.953 204.353 137.709 204.287 137.498 204.155C137.29 204.022 137.126 203.837 137.008 203.598C136.892 203.36 136.834 203.082 136.834 202.763C136.834 202.442 136.892 202.161 137.008 201.922C137.126 201.682 137.29 201.496 137.498 201.364C137.709 201.231 137.953 201.165 138.231 201.165C138.51 201.165 138.753 201.231 138.962 201.364C139.172 201.496 139.336 201.682 139.452 201.922C139.57 202.161 139.629 202.442 139.629 202.763C139.629 203.082 139.57 203.36 139.452 203.598C139.336 203.837 139.172 204.022 138.962 204.155C138.753 204.287 138.51 204.353 138.231 204.353ZM138.231 203.928C138.443 203.928 138.617 203.873 138.753 203.765C138.89 203.657 138.991 203.514 139.056 203.337C139.122 203.161 139.155 202.969 139.155 202.763C139.155 202.557 139.122 202.365 139.056 202.187C138.991 202.009 138.89 201.865 138.753 201.755C138.617 201.645 138.443 201.591 138.231 201.591C138.02 201.591 137.846 201.645 137.709 201.755C137.573 201.865 137.472 202.009 137.406 202.187C137.34 202.365 137.308 202.557 137.308 202.763C137.308 202.969 137.34 203.161 137.406 203.337C137.472 203.514 137.573 203.657 137.709 203.765C137.846 203.873 138.02 203.928 138.231 203.928ZM142.423 201.896L141.998 202.016C141.971 201.945 141.932 201.876 141.879 201.809C141.828 201.741 141.759 201.685 141.671 201.641C141.582 201.597 141.469 201.574 141.331 201.574C141.142 201.574 140.985 201.618 140.859 201.705C140.735 201.791 140.673 201.9 140.673 202.032C140.673 202.15 140.715 202.243 140.801 202.311C140.887 202.38 141.021 202.436 141.203 202.482L141.66 202.594C141.936 202.661 142.142 202.764 142.277 202.902C142.412 203.038 142.48 203.214 142.48 203.43C142.48 203.606 142.429 203.764 142.327 203.904C142.227 204.043 142.086 204.153 141.905 204.233C141.725 204.313 141.515 204.353 141.275 204.353C140.96 204.353 140.7 204.285 140.494 204.149C140.288 204.012 140.157 203.813 140.102 203.55L140.552 203.438C140.595 203.604 140.676 203.728 140.795 203.811C140.916 203.894 141.073 203.936 141.267 203.936C141.488 203.936 141.663 203.889 141.793 203.795C141.924 203.7 141.99 203.586 141.99 203.454C141.99 203.347 141.952 203.257 141.877 203.185C141.802 203.111 141.687 203.056 141.532 203.02L141.018 202.9C140.736 202.833 140.528 202.729 140.396 202.588C140.264 202.447 140.199 202.269 140.199 202.056C140.199 201.882 140.248 201.728 140.345 201.595C140.444 201.461 140.579 201.356 140.749 201.279C140.92 201.203 141.114 201.165 141.331 201.165C141.636 201.165 141.876 201.232 142.05 201.366C142.225 201.499 142.35 201.676 142.423 201.896ZM144.421 201.205V201.607H142.823V201.205H144.421ZM143.289 200.466H143.763V203.406C143.763 203.539 143.782 203.64 143.821 203.707C143.861 203.772 143.912 203.817 143.973 203.839C144.036 203.861 144.103 203.871 144.172 203.871C144.224 203.871 144.267 203.869 144.301 203.863C144.334 203.857 144.361 203.851 144.381 203.847L144.477 204.273C144.445 204.285 144.4 204.297 144.343 204.309C144.285 204.323 144.212 204.329 144.124 204.329C143.99 204.329 143.859 204.3 143.73 204.243C143.603 204.185 143.498 204.098 143.413 203.98C143.33 203.862 143.289 203.713 143.289 203.534V200.466ZM145.021 205.446V201.205H145.479V201.695H145.535C145.57 201.641 145.618 201.573 145.679 201.49C145.742 201.406 145.832 201.331 145.948 201.265C146.066 201.198 146.226 201.165 146.426 201.165C146.686 201.165 146.915 201.23 147.113 201.36C147.311 201.489 147.466 201.674 147.577 201.912C147.688 202.15 147.743 202.431 147.743 202.755C147.743 203.082 147.688 203.365 147.577 203.604C147.466 203.843 147.312 204.027 147.115 204.159C146.918 204.288 146.691 204.353 146.434 204.353C146.236 204.353 146.078 204.321 145.959 204.255C145.839 204.188 145.748 204.112 145.683 204.028C145.619 203.942 145.57 203.871 145.535 203.815H145.495V205.446H145.021ZM145.487 202.747C145.487 202.98 145.521 203.185 145.589 203.363C145.657 203.54 145.757 203.679 145.888 203.779C146.019 203.878 146.18 203.928 146.37 203.928C146.568 203.928 146.734 203.875 146.866 203.771C147 203.665 147.1 203.523 147.167 203.345C147.235 203.166 147.27 202.967 147.27 202.747C147.27 202.53 147.236 202.335 147.169 202.161C147.104 201.985 147.004 201.847 146.87 201.745C146.738 201.642 146.571 201.591 146.37 201.591C146.177 201.591 146.015 201.639 145.884 201.737C145.753 201.833 145.654 201.969 145.587 202.143C145.52 202.315 145.487 202.517 145.487 202.747ZM149.261 204.361C149.065 204.361 148.888 204.325 148.729 204.251C148.569 204.176 148.443 204.068 148.349 203.928C148.256 203.786 148.209 203.614 148.209 203.414C148.209 203.237 148.243 203.094 148.313 202.984C148.383 202.873 148.476 202.786 148.592 202.723C148.709 202.66 148.837 202.613 148.978 202.582C149.12 202.55 149.262 202.525 149.405 202.506C149.593 202.482 149.745 202.464 149.861 202.452C149.979 202.438 150.065 202.416 150.118 202.386C150.173 202.355 150.2 202.301 150.2 202.225V202.209C150.2 202.011 150.146 201.857 150.038 201.747C149.931 201.637 149.768 201.582 149.55 201.582C149.324 201.582 149.146 201.632 149.018 201.731C148.889 201.83 148.799 201.936 148.747 202.048L148.297 201.888C148.377 201.7 148.484 201.554 148.618 201.45C148.753 201.344 148.901 201.271 149.06 201.229C149.221 201.186 149.379 201.165 149.534 201.165C149.633 201.165 149.747 201.177 149.875 201.201C150.005 201.224 150.13 201.271 150.251 201.344C150.372 201.416 150.474 201.525 150.554 201.671C150.634 201.817 150.674 202.012 150.674 202.257V204.289H150.2V203.871H150.176C150.144 203.938 150.091 204.01 150.016 204.086C149.941 204.163 149.841 204.227 149.717 204.281C149.592 204.335 149.44 204.361 149.261 204.361ZM149.333 203.936C149.52 203.936 149.678 203.899 149.807 203.825C149.937 203.752 150.034 203.657 150.1 203.54C150.167 203.424 150.2 203.301 150.2 203.173V202.739C150.18 202.763 150.136 202.785 150.068 202.805C150.001 202.824 149.923 202.841 149.835 202.855C149.748 202.869 149.663 202.881 149.58 202.892C149.498 202.901 149.432 202.909 149.381 202.916C149.258 202.932 149.143 202.958 149.036 202.994C148.93 203.029 148.844 203.082 148.779 203.153C148.715 203.222 148.683 203.317 148.683 203.438C148.683 203.602 148.743 203.727 148.865 203.811C148.988 203.894 149.144 203.936 149.333 203.936ZM151.426 204.289V201.205H151.9V204.289H151.426ZM151.667 200.691C151.575 200.691 151.495 200.66 151.428 200.597C151.363 200.534 151.33 200.458 151.33 200.37C151.33 200.281 151.363 200.206 151.428 200.143C151.495 200.08 151.575 200.048 151.667 200.048C151.759 200.048 151.838 200.08 151.904 200.143C151.971 200.206 152.004 200.281 152.004 200.37C152.004 200.458 151.971 200.534 151.904 200.597C151.838 200.66 151.759 200.691 151.667 200.691ZM153.819 204.353C153.562 204.353 153.335 204.288 153.139 204.159C152.942 204.027 152.788 203.843 152.677 203.604C152.566 203.365 152.51 203.082 152.51 202.755C152.51 202.431 152.566 202.15 152.677 201.912C152.788 201.674 152.943 201.489 153.141 201.36C153.339 201.23 153.568 201.165 153.827 201.165C154.028 201.165 154.187 201.198 154.303 201.265C154.421 201.331 154.511 201.406 154.572 201.49C154.635 201.573 154.684 201.641 154.719 201.695H154.759V200.177H155.233V204.289H154.775V203.815H154.719C154.684 203.871 154.634 203.942 154.57 204.028C154.506 204.112 154.414 204.188 154.295 204.255C154.176 204.321 154.017 204.353 153.819 204.353ZM153.884 203.928C154.074 203.928 154.234 203.878 154.365 203.779C154.497 203.679 154.596 203.54 154.665 203.363C154.733 203.185 154.767 202.98 154.767 202.747C154.767 202.517 154.734 202.315 154.667 202.143C154.6 201.969 154.501 201.833 154.369 201.737C154.238 201.639 154.076 201.591 153.884 201.591C153.683 201.591 153.515 201.642 153.382 201.745C153.249 201.847 153.149 201.985 153.082 202.161C153.017 202.335 152.984 202.53 152.984 202.747C152.984 202.967 153.018 203.166 153.084 203.345C153.153 203.523 153.253 203.665 153.386 203.771C153.519 203.875 153.685 203.928 153.884 203.928Z" fill="#FAFAFA"/>
<path d="M87.8892 220.033V224.729H87.2718V221.227L85.7112 224.729H85.277L83.7097 221.221V224.729H83.0923V220.033H83.7572L85.4941 223.914L87.2311 220.033H87.8892ZM92.4984 222.727C92.4984 222.845 92.4916 222.969 92.478 223.1H89.5062C89.5289 223.467 89.6532 223.754 89.8794 223.962C90.1101 224.165 90.3883 224.267 90.714 224.267C90.9808 224.267 91.2025 224.206 91.3789 224.084C91.5598 223.957 91.6865 223.79 91.7588 223.582H92.4238C92.3242 223.939 92.1252 224.231 91.8267 224.457C91.5281 224.679 91.1572 224.79 90.714 224.79C90.3611 224.79 90.0445 224.71 89.7641 224.552C89.4881 224.394 89.271 224.17 89.1127 223.88C88.9544 223.586 88.8752 223.247 88.8752 222.863C88.8752 222.478 88.9521 222.141 89.1059 221.852C89.2597 221.562 89.4746 221.341 89.7505 221.187C90.0309 221.028 90.3521 220.949 90.714 220.949C91.0668 220.949 91.3789 221.026 91.6503 221.18C91.9217 221.334 92.1297 221.546 92.2745 221.818C92.4238 222.085 92.4984 222.388 92.4984 222.727ZM91.8606 222.598C91.8606 222.363 91.8086 222.162 91.7046 221.994C91.6005 221.822 91.458 221.693 91.2771 221.607C91.1007 221.517 90.9039 221.472 90.6868 221.472C90.3747 221.472 90.1078 221.571 89.8862 221.77C89.6691 221.969 89.5447 222.245 89.513 222.598H91.8606ZM94.2361 221.519V223.711C94.2361 223.892 94.2746 224.021 94.3515 224.098C94.4284 224.17 94.5618 224.206 94.7518 224.206H95.2064V224.729H94.65C94.3062 224.729 94.0484 224.649 93.8765 224.491C93.7046 224.333 93.6187 224.073 93.6187 223.711V221.519H93.137V221.01H93.6187V220.074H94.2361V221.01H95.2064V221.519H94.2361ZM99.5165 222.727C99.5165 222.845 99.5098 222.969 99.4962 223.1H96.5244C96.547 223.467 96.6714 223.754 96.8976 223.962C97.1283 224.165 97.4064 224.267 97.7321 224.267C97.999 224.267 98.2206 224.206 98.397 224.084C98.578 223.957 98.7046 223.79 98.777 223.582H99.4419C99.3424 223.939 99.1434 224.231 98.8448 224.457C98.5463 224.679 98.1754 224.79 97.7321 224.79C97.3793 224.79 97.0627 224.71 96.7822 224.552C96.5063 224.394 96.2892 224.17 96.1309 223.88C95.9726 223.586 95.8934 223.247 95.8934 222.863C95.8934 222.478 95.9703 222.141 96.1241 221.852C96.2779 221.562 96.4927 221.341 96.7687 221.187C97.0491 221.028 97.3702 220.949 97.7321 220.949C98.0849 220.949 98.397 221.026 98.6684 221.18C98.9398 221.334 99.1479 221.546 99.2926 221.818C99.4419 222.085 99.5165 222.388 99.5165 222.727ZM98.8788 222.598C98.8788 222.363 98.8267 222.162 98.7227 221.994C98.6187 221.822 98.4762 221.693 98.2953 221.607C98.1189 221.517 97.9221 221.472 97.705 221.472C97.3929 221.472 97.126 221.571 96.9044 221.77C96.6872 221.969 96.5628 222.245 96.5312 222.598H98.8788ZM101.119 221.614C101.227 221.402 101.381 221.237 101.58 221.119C101.784 221.001 102.03 220.943 102.32 220.943V221.58H102.157C101.465 221.58 101.119 221.956 101.119 222.707V224.729H100.501V221.01H101.119V221.614ZM108.899 224.729H108.281L105.798 220.963V224.729H105.18V219.993H105.798L108.281 223.751V219.993H108.899V224.729ZM113.418 221.01V224.729H112.801V224.179C112.683 224.369 112.518 224.518 112.305 224.627C112.097 224.731 111.867 224.783 111.613 224.783C111.324 224.783 111.064 224.724 110.833 224.606C110.602 224.484 110.419 224.303 110.283 224.064C110.152 223.824 110.087 223.532 110.087 223.188V221.01H110.697V223.107C110.697 223.473 110.79 223.756 110.976 223.955C111.161 224.15 111.414 224.247 111.735 224.247C112.066 224.247 112.326 224.145 112.516 223.941C112.706 223.738 112.801 223.442 112.801 223.053V221.01H113.418ZM119.101 220.943C119.391 220.943 119.649 221.004 119.875 221.126C120.101 221.243 120.28 221.422 120.411 221.662C120.542 221.901 120.608 222.193 120.608 222.537V224.729H119.997V222.625C119.997 222.254 119.904 221.972 119.719 221.777C119.538 221.578 119.291 221.479 118.979 221.479C118.658 221.479 118.403 221.583 118.213 221.791C118.023 221.994 117.928 222.29 117.928 222.679V224.729H117.317V222.625C117.317 222.254 117.224 221.972 117.039 221.777C116.858 221.578 116.611 221.479 116.299 221.479C115.978 221.479 115.723 221.583 115.533 221.791C115.343 221.994 115.248 222.29 115.248 222.679V224.729H114.63V221.01H115.248V221.546C115.37 221.352 115.533 221.203 115.736 221.099C115.944 220.995 116.173 220.943 116.421 220.943C116.734 220.943 117.009 221.013 117.249 221.153C117.489 221.293 117.668 221.499 117.785 221.77C117.889 221.508 118.061 221.304 118.301 221.16C118.541 221.015 118.807 220.943 119.101 220.943ZM122.408 221.702C122.534 221.481 122.72 221.3 122.964 221.16C123.208 221.019 123.486 220.949 123.799 220.949C124.133 220.949 124.434 221.028 124.701 221.187C124.968 221.345 125.178 221.569 125.332 221.858C125.486 222.143 125.563 222.476 125.563 222.856C125.563 223.231 125.486 223.566 125.332 223.86C125.178 224.154 124.966 224.382 124.694 224.545C124.427 224.708 124.129 224.79 123.799 224.79C123.477 224.79 123.195 224.719 122.95 224.579C122.711 224.439 122.53 224.26 122.408 224.043V224.729H121.79V219.708H122.408V221.702ZM124.932 222.856C124.932 222.575 124.875 222.331 124.762 222.123C124.649 221.915 124.495 221.757 124.301 221.648C124.111 221.54 123.9 221.485 123.67 221.485C123.443 221.485 123.233 221.542 123.039 221.655C122.849 221.764 122.695 221.924 122.577 222.137C122.464 222.345 122.408 222.587 122.408 222.863C122.408 223.143 122.464 223.39 122.577 223.602C122.695 223.81 122.849 223.971 123.039 224.084C123.233 224.193 123.443 224.247 123.67 224.247C123.9 224.247 124.111 224.193 124.301 224.084C124.495 223.971 124.649 223.81 124.762 223.602C124.875 223.39 124.932 223.141 124.932 222.856ZM129.937 222.727C129.937 222.845 129.931 222.969 129.917 223.1H126.945C126.968 223.467 127.092 223.754 127.318 223.962C127.549 224.165 127.827 224.267 128.153 224.267C128.42 224.267 128.641 224.206 128.818 224.084C128.999 223.957 129.125 223.79 129.198 223.582H129.863C129.763 223.939 129.564 224.231 129.266 224.457C128.967 224.679 128.596 224.79 128.153 224.79C127.8 224.79 127.484 224.71 127.203 224.552C126.927 224.394 126.71 224.17 126.552 223.88C126.393 223.586 126.314 223.247 126.314 222.863C126.314 222.478 126.391 222.141 126.545 221.852C126.699 221.562 126.914 221.341 127.189 221.187C127.47 221.028 127.791 220.949 128.153 220.949C128.506 220.949 128.818 221.026 129.089 221.18C129.361 221.334 129.569 221.546 129.713 221.818C129.863 222.085 129.937 222.388 129.937 222.727ZM129.3 222.598C129.3 222.363 129.248 222.162 129.144 221.994C129.04 221.822 128.897 221.693 128.716 221.607C128.54 221.517 128.343 221.472 128.126 221.472C127.814 221.472 127.547 221.571 127.325 221.77C127.108 221.969 126.984 222.245 126.952 222.598H129.3ZM131.539 221.614C131.648 221.402 131.802 221.237 132.001 221.119C132.204 221.001 132.451 220.943 132.74 220.943V221.58H132.578C131.885 221.58 131.539 221.956 131.539 222.707V224.729H130.922V221.01H131.539V221.614Z" fill="#525252"/>
<rect x="82.8525" y="232.535" width="230.687" height="31.0976" rx="6.50222" stroke="#E5E7EB" stroke-width="0.56541"/>
<path d="M90.151 244.848H91.1019L93.3378 250.31H93.4149L95.6509 244.848H96.6018V251.428H95.8565V246.429H95.7922L93.7362 251.428H93.0166L90.9605 246.429H90.8963V251.428H90.151V244.848ZM100.165 251.531C99.6899 251.531 99.2797 251.426 98.9349 251.216C98.5922 251.004 98.3277 250.708 98.1414 250.329C97.9572 249.948 97.8651 249.504 97.8651 248.999C97.8651 248.494 97.9572 248.048 98.1414 247.663C98.3277 247.275 98.5869 246.973 98.9188 246.757C99.2529 246.538 99.6427 246.429 100.088 246.429C100.345 246.429 100.599 246.472 100.85 246.557C101.1 246.643 101.328 246.782 101.534 246.975C101.739 247.166 101.903 247.418 102.025 247.733C102.147 248.048 102.208 248.436 102.208 248.896V249.217H98.4048V248.562H101.437C101.437 248.284 101.382 248.035 101.27 247.817C101.161 247.598 101.005 247.426 100.801 247.3C100.6 247.173 100.362 247.11 100.088 247.11C99.7862 247.11 99.5249 247.185 99.3043 247.335C99.0859 247.483 98.9178 247.675 98.8 247.913C98.6822 248.151 98.6233 248.406 98.6233 248.678V249.115C98.6233 249.487 98.6875 249.803 98.816 250.062C98.9467 250.319 99.1277 250.515 99.359 250.65C99.5903 250.783 99.859 250.849 100.165 250.849C100.364 250.849 100.544 250.822 100.705 250.766C100.868 250.708 101.008 250.622 101.126 250.509C101.244 250.393 101.335 250.25 101.399 250.078L102.131 250.284C102.054 250.533 101.925 250.751 101.743 250.939C101.561 251.126 101.336 251.271 101.068 251.376C100.8 251.479 100.499 251.531 100.165 251.531ZM105.508 246.493V247.136H102.951V246.493H105.508ZM103.696 245.311H104.454V250.014C104.454 250.228 104.485 250.389 104.547 250.496C104.611 250.601 104.693 250.672 104.791 250.708C104.892 250.742 104.998 250.76 105.109 250.76C105.193 250.76 105.261 250.755 105.315 250.747C105.369 250.736 105.411 250.727 105.444 250.721L105.598 251.402C105.546 251.421 105.475 251.441 105.383 251.46C105.29 251.481 105.174 251.492 105.032 251.492C104.818 251.492 104.608 251.446 104.403 251.354C104.199 251.262 104.03 251.121 103.895 250.933C103.762 250.745 103.696 250.507 103.696 250.22V245.311ZM108.664 251.531C108.189 251.531 107.779 251.426 107.434 251.216C107.091 251.004 106.827 250.708 106.64 250.329C106.456 249.948 106.364 249.504 106.364 248.999C106.364 248.494 106.456 248.048 106.64 247.663C106.827 247.275 107.086 246.973 107.418 246.757C107.752 246.538 108.142 246.429 108.587 246.429C108.844 246.429 109.098 246.472 109.348 246.557C109.599 246.643 109.827 246.782 110.033 246.975C110.238 247.166 110.402 247.418 110.524 247.733C110.646 248.048 110.707 248.436 110.707 248.896V249.217H106.904V248.562H109.936C109.936 248.284 109.881 248.035 109.769 247.817C109.66 247.598 109.504 247.426 109.3 247.3C109.099 247.173 108.861 247.11 108.587 247.11C108.285 247.11 108.024 247.185 107.803 247.335C107.585 247.483 107.417 247.675 107.299 247.913C107.181 248.151 107.122 248.406 107.122 248.678V249.115C107.122 249.487 107.186 249.803 107.315 250.062C107.446 250.319 107.626 250.515 107.858 250.65C108.089 250.783 108.358 250.849 108.664 250.849C108.863 250.849 109.043 250.822 109.204 250.766C109.367 250.708 109.507 250.622 109.625 250.509C109.742 250.393 109.834 250.25 109.898 250.078L110.63 250.284C110.553 250.533 110.424 250.751 110.241 250.939C110.059 251.126 109.835 251.271 109.567 251.376C109.299 251.479 108.998 251.531 108.664 251.531ZM111.861 251.428V246.493H112.593V247.239H112.644C112.734 246.994 112.897 246.796 113.133 246.644C113.368 246.492 113.634 246.416 113.93 246.416C113.985 246.416 114.055 246.417 114.138 246.419C114.222 246.421 114.285 246.425 114.328 246.429V247.2C114.302 247.194 114.243 247.184 114.151 247.171C114.061 247.156 113.966 247.149 113.865 247.149C113.625 247.149 113.411 247.199 113.223 247.3C113.036 247.398 112.889 247.535 112.779 247.711C112.672 247.884 112.619 248.082 112.619 248.305V251.428H111.861ZM123.091 244.848V251.428H122.32L118.735 246.262H118.67V251.428H117.874V244.848H118.645L122.243 250.027H122.307V244.848H123.091ZM127.692 249.41V246.493H128.45V251.428H127.692V250.592H127.641C127.525 250.843 127.345 251.056 127.101 251.232C126.857 251.405 126.548 251.492 126.176 251.492C125.867 251.492 125.593 251.425 125.353 251.29C125.113 251.153 124.925 250.947 124.788 250.673C124.651 250.397 124.582 250.048 124.582 249.629V246.493H125.341V249.577C125.341 249.937 125.441 250.224 125.642 250.438C125.846 250.652 126.105 250.76 126.42 250.76C126.608 250.76 126.8 250.711 126.995 250.615C127.192 250.519 127.357 250.371 127.49 250.172C127.625 249.972 127.692 249.719 127.692 249.41ZM129.839 251.428V246.493H130.571V247.264H130.636C130.738 247.001 130.904 246.796 131.134 246.651C131.363 246.503 131.638 246.429 131.959 246.429C132.285 246.429 132.556 246.503 132.772 246.651C132.99 246.796 133.161 247.001 133.283 247.264H133.334C133.461 247.009 133.65 246.807 133.903 246.657C134.156 246.505 134.459 246.429 134.812 246.429C135.253 246.429 135.614 246.567 135.895 246.843C136.175 247.118 136.315 247.545 136.315 248.125V251.428H135.557V248.125C135.557 247.761 135.458 247.501 135.258 247.345C135.059 247.188 134.825 247.11 134.555 247.11C134.208 247.11 133.939 247.215 133.749 247.425C133.558 247.633 133.463 247.896 133.463 248.215V251.428H132.692V248.048C132.692 247.768 132.601 247.542 132.419 247.37C132.237 247.197 132.002 247.11 131.715 247.11C131.518 247.11 131.334 247.163 131.162 247.267C130.993 247.372 130.856 247.518 130.751 247.704C130.648 247.889 130.597 248.102 130.597 248.344V251.428H129.839ZM137.804 251.428V244.848H138.563V247.277H138.627C138.683 247.191 138.76 247.082 138.858 246.949C138.959 246.815 139.102 246.695 139.289 246.59C139.477 246.483 139.732 246.429 140.053 246.429C140.469 246.429 140.835 246.533 141.152 246.741C141.469 246.948 141.716 247.243 141.894 247.624C142.072 248.005 142.161 248.455 142.161 248.973C142.161 249.496 142.072 249.949 141.894 250.332C141.716 250.713 141.47 251.009 141.155 251.219C140.84 251.427 140.477 251.531 140.066 251.531C139.749 251.531 139.495 251.478 139.305 251.373C139.114 251.266 138.967 251.145 138.865 251.01C138.762 250.873 138.683 250.76 138.627 250.67H138.537V251.428H137.804ZM138.55 248.96C138.55 249.333 138.604 249.662 138.714 249.947C138.823 250.229 138.982 250.451 139.192 250.612C139.402 250.77 139.659 250.849 139.963 250.849C140.28 250.849 140.545 250.766 140.757 250.599C140.971 250.43 141.132 250.203 141.239 249.918C141.348 249.631 141.403 249.312 141.403 248.96C141.403 248.614 141.349 248.301 141.242 248.022C141.137 247.742 140.977 247.52 140.763 247.357C140.551 247.193 140.285 247.11 139.963 247.11C139.655 247.11 139.396 247.188 139.186 247.345C138.976 247.499 138.817 247.715 138.71 247.994C138.603 248.27 138.55 248.592 138.55 248.96ZM145.389 251.531C144.914 251.531 144.504 251.426 144.159 251.216C143.816 251.004 143.552 250.708 143.365 250.329C143.181 249.948 143.089 249.504 143.089 248.999C143.089 248.494 143.181 248.048 143.365 247.663C143.552 247.275 143.811 246.973 144.143 246.757C144.477 246.538 144.867 246.429 145.312 246.429C145.569 246.429 145.823 246.472 146.074 246.557C146.324 246.643 146.552 246.782 146.758 246.975C146.963 247.166 147.127 247.418 147.249 247.733C147.371 248.048 147.432 248.436 147.432 248.896V249.217H143.629V248.562H146.661C146.661 248.284 146.606 248.035 146.494 247.817C146.385 247.598 146.229 247.426 146.025 247.3C145.824 247.173 145.586 247.11 145.312 247.11C145.01 247.11 144.749 247.185 144.528 247.335C144.31 247.483 144.142 247.675 144.024 247.913C143.906 248.151 143.847 248.406 143.847 248.678V249.115C143.847 249.487 143.912 249.803 144.04 250.062C144.171 250.319 144.352 250.515 144.583 250.65C144.814 250.783 145.083 250.849 145.389 250.849C145.588 250.849 145.768 250.822 145.929 250.766C146.092 250.708 146.232 250.622 146.35 250.509C146.468 250.393 146.559 250.25 146.623 250.078L147.355 250.284C147.278 250.533 147.149 250.751 146.967 250.939C146.785 251.126 146.56 251.271 146.292 251.376C146.024 251.479 145.723 251.531 145.389 251.531ZM148.586 251.428V246.493H149.318V247.239H149.37C149.46 246.994 149.622 246.796 149.858 246.644C150.094 246.492 150.359 246.416 150.655 246.416C150.71 246.416 150.78 246.417 150.863 246.419C150.947 246.421 151.01 246.425 151.053 246.429V247.2C151.027 247.194 150.968 247.184 150.876 247.171C150.786 247.156 150.691 247.149 150.59 247.149C150.351 247.149 150.136 247.199 149.948 247.3C149.762 247.398 149.614 247.535 149.505 247.711C149.397 247.884 149.344 248.082 149.344 248.305V251.428H148.586Z" fill="#9CA3AF"/>
</g>
<defs>
<filter id="filter0_d_1998_33194" x="0.599998" y="0.599998" width="395.193" height="345.282" filterUnits="userSpaceOnUse" color-interpolation-filters="sRGB">
<feFlood flood-opacity="0" result="BackgroundImageFix"/>
<feColorMatrix in="SourceAlpha" type="matrix" values="0 0 0 0 0 0 0 0 0 0 0 0 0 0 0 0 0 0 127 0" result="hardAlpha"/>
<feOffset/>
<feGaussianBlur stdDeviation="34.2"/>
<feComposite in2="hardAlpha" operator="out"/>
<feColorMatrix type="matrix" values="0 0 0 0 0.894118 0 0 0 0 0.894118 0 0 0 0 0.894118 0 0 0 1 0"/>
<feBlend mode="normal" in2="BackgroundImageFix" result="effect1_dropShadow_1998_33194"/>
<feBlend mode="normal" in="SourceGraphic" in2="effect1_dropShadow_1998_33194" result="shape"/>
</filter>
<clipPath id="clip0_1998_33194">
<rect width="13.5698" height="13.5698" fill="white" transform="translate(288 161.281) rotate(-90)"/>
</clipPath>
</defs>
</svg>
