<svg width="36" height="36" viewBox="0 0 36 36" fill="none" xmlns="http://www.w3.org/2000/svg">
<rect width="36" height="36" rx="18" fill="#F2D7D5"/>
<path d="M24.53 16.7391C24.511 16.8839 24.4502 17.02 24.355 17.1308L16.23 26.0558C16.127 26.1889 15.9838 26.2854 15.8217 26.3308C15.7522 26.3391 15.6828 26.3391 15.6133 26.3308C15.4954 26.3302 15.379 26.3047 15.2717 26.2558C15.1046 26.1773 14.9714 26.0412 14.8967 25.8724C14.824 25.7223 14.8035 25.5522 14.8383 25.3891L15.555 19.6724H12.53C12.3571 19.6617 12.1876 19.6193 12.03 19.5474C11.8757 19.4662 11.7435 19.3486 11.6448 19.2049C11.5461 19.0612 11.4838 18.8956 11.4633 18.7224C11.4458 18.5467 11.4716 18.3693 11.5383 18.2058L14.6883 10.3308C14.7717 10.1316 14.91 9.96077 15.0883 9.8391C15.2668 9.72309 15.4755 9.66223 15.6883 9.6641H21.7217C21.8958 9.66744 22.0667 9.70994 22.2217 9.7891C22.3783 9.8766 22.5125 9.99994 22.6133 10.1474C22.7067 10.2966 22.7633 10.4641 22.78 10.6391C22.7971 10.8129 22.7684 10.9882 22.6967 11.1474L20.705 15.7891H23.7467C23.8978 15.7942 24.0447 15.8403 24.1717 15.9224C24.3055 16.0119 24.4106 16.1382 24.4742 16.2861C24.5377 16.434 24.5571 16.5971 24.53 16.7558V16.7391Z" fill="#A30000"/>
</svg>
