<svg width="176" height="60" viewBox="0 0 176 60" fill="none" xmlns="http://www.w3.org/2000/svg">
<g clip-path="url(#clip0_1998_30118)">
<path fill-rule="evenodd" clip-rule="evenodd" d="M8.23062 0.00195312C4.09419 0.00195312 0.740967 3.35519 0.740967 7.49161V51.8054C0.740967 55.9418 4.0942 59.2951 8.23062 59.2951H168.01C172.146 59.2951 175.5 55.9418 175.5 51.8054V7.49161C175.5 3.35519 172.146 0.00195312 168.01 0.00195312H8.23062Z" fill="black"/>
<g clip-path="url(#clip1_1998_30118)">
<path fill-rule="evenodd" clip-rule="evenodd" d="M14.8915 24.1895C14.3992 24.3448 14.0806 24.8474 14.0806 25.6078L14.0836 49.5405C14.0836 50.2925 14.3924 50.7875 14.871 50.9527L28.1506 37.5604L14.8915 24.1895" fill="url(#paint0_linear_1998_30118)"/>
<path fill-rule="evenodd" clip-rule="evenodd" d="M14.8706 50.9568C15.215 51.0746 15.6467 51.0195 16.117 50.7594L32.3226 41.772L28.1502 37.5645L14.8706 50.9568" fill="url(#paint1_linear_1998_30118)"/>
<path fill-rule="evenodd" clip-rule="evenodd" d="M32.3253 41.7702L37.8511 38.7063C38.9715 38.0828 38.9715 37.0684 37.8511 36.4464L32.3048 33.3711L28.1506 37.5603L32.3253 41.7702" fill="url(#paint2_linear_1998_30118)"/>
<path fill-rule="evenodd" clip-rule="evenodd" d="M32.3044 33.3715L16.1177 24.3963C15.6588 24.1431 15.2355 24.0842 14.8926 24.1921L28.1509 37.5607L32.3044 33.3715" fill="url(#paint3_linear_1998_30118)"/>
</g>
<path d="M100.28 33.2197H98.6895C99.2775 33.7071 100.504 34.7419 100.504 36.7031C100.504 38.6146 99.4353 39.5162 98.3574 40.3691C98.0268 40.7049 97.6398 41.0691 97.6396 41.6318C97.6398 42.2028 98.0264 42.5132 98.3047 42.7441L99.2295 43.4639C100.354 44.4208 101.379 45.2988 101.379 47.0811C101.379 49.5091 99.048 51.958 94.6445 51.958C90.9356 51.9579 89.1421 50.1765 89.1416 48.2666C89.1416 47.3371 89.6012 46.0201 91.1152 45.1182C92.7022 44.1399 94.8524 44.0091 96.0039 43.9326C95.6444 43.4645 95.2336 42.9737 95.2334 42.1738C95.2334 41.7365 95.3644 41.4753 95.4902 41.168C95.2103 41.1947 94.9273 41.2217 94.6709 41.2217C91.9564 41.2215 90.4222 39.1794 90.4219 37.167C90.4219 35.9798 90.9586 34.6618 92.0615 33.707C93.5211 32.4953 95.2616 32.2871 96.6445 32.2871H101.92L100.28 33.2197ZM96.2842 44.6494C96.052 44.6494 94.6688 44.6999 93.5977 45.0625C93.0309 45.2714 91.3937 45.8892 91.3936 47.7227C91.3938 49.5523 93.1621 50.8721 95.8975 50.8721C98.3548 50.8719 99.6598 49.6842 99.6602 48.085C99.6602 46.7684 98.815 46.0738 96.873 44.6777C96.6632 44.6502 96.5373 44.6494 96.2842 44.6494ZM157.331 42.7861L161.664 32.2031H163.129L156.907 46.9785C156.262 48.5008 155.246 49.2334 153.851 49.2334C153.432 49.2334 152.88 49.1578 152.557 49.0576L152.779 47.8525C153.056 47.9772 153.529 48.0537 153.828 48.0537C154.62 48.0537 155.172 47.7275 155.667 46.5742L156.611 44.416L151.511 32.2031H152.955L157.331 42.7861ZM129.816 31.8975C133.028 31.8975 135.191 34.3538 135.191 38.2422C135.191 42.1047 133.028 44.6123 129.816 44.6123C128.126 44.6121 126.613 43.7331 125.642 42.3555V48.9316H124.347V32.1992H125.642V34.1055C126.485 32.8739 128.026 31.8976 129.816 31.8975ZM54.4863 26.8262C55.7813 26.8262 57.0272 27.018 58.1621 27.3301C59.9603 27.8395 60.8014 28.468 61.3271 28.8359L59.334 30.7451L58.4932 30.9355L59.0928 29.9717C58.2811 29.1722 56.7887 27.6964 53.957 27.6963C50.1708 27.6963 47.3145 30.5995 47.3145 34.8369C47.3148 39.3877 50.5763 43.6689 55.8066 43.6689C57.3431 43.6689 58.1343 43.357 58.8525 43.0664V39.165L55.2295 39.3613L57.1494 38.3213H62.2354L61.6133 38.9248C61.4459 39.0684 61.423 39.1179 61.376 39.3105C61.351 39.5314 61.3272 40.2311 61.3271 40.4775V43.4287L57.8955 44.2207C56.5052 44.4418 55.2566 44.6367 53.9346 44.6367C47.3151 44.6367 44.7922 39.7226 44.792 35.877C44.792 31.1806 48.3659 26.8262 54.4863 26.8262ZM145.453 31.8945C146.865 31.8946 148.007 32.237 148.868 32.9209C149.728 33.5979 150.16 34.5764 150.16 35.8555V41.8301C150.16 42.2593 150.18 42.6742 150.233 43.0781C150.288 43.4827 150.375 43.8865 150.491 44.2773H148.999C148.913 43.8574 148.848 43.4868 148.8 43.1777C148.76 42.8696 148.737 42.5547 148.737 42.2344C148.294 42.8914 147.665 43.4385 146.861 43.8691C146.057 44.3028 145.293 44.5156 144.246 44.5156C142.985 44.5156 142.005 44.2022 141.307 43.5674C140.61 42.9332 140.26 42.0743 140.26 40.9873C140.26 39.9018 140.767 39.0207 141.779 38.3467C142.791 37.6697 144.099 37.333 145.718 37.333H148.737V35.8281C148.737 34.9615 148.445 34.2793 147.86 33.7852C147.273 33.2902 146.449 33.0401 145.381 33.04C144.405 33.04 143.613 33.2688 143.01 33.7139C142.412 34.1683 142.11 34.7316 142.11 35.4102H140.785L140.758 35.3447C140.71 34.43 141.125 33.6275 142.007 32.9346C142.885 32.2422 144.037 31.8945 145.453 31.8945ZM113.559 31.9492C114.48 31.9492 115.426 32.1825 116.195 32.6729C117.474 33.5258 117.805 34.6339 117.988 35.2275L111.971 37.6797L109.999 37.834C110.637 41.1157 112.839 43.0242 115.271 43.0244C116.487 43.0244 117.389 42.6243 118.217 42.2119C118.22 42.2102 118.382 42.1261 118.265 42.2441L117.04 43.4092C116.757 43.566 116.476 43.7487 116.195 43.8779C115.345 44.2673 114.479 44.3652 113.711 44.3652C112.893 44.3652 111.611 44.3112 110.304 43.3574C108.487 42.0668 107.692 39.8482 107.692 37.915C107.692 33.9127 110.923 31.9494 113.559 31.9492ZM69.585 31.9609C73.3462 31.961 75.7012 34.932 75.7012 38.0518C75.7009 41.0986 73.3742 44.322 69.1992 44.3223C65.1294 44.3223 62.9553 41.1266 62.9551 38.2334C62.9553 34.853 65.6934 31.9609 69.585 31.9609ZM83.2041 31.9551C86.9676 31.9551 89.3252 34.9271 89.3252 38.0469C89.3248 41.0937 86.9946 44.3174 82.8203 44.3174C78.7514 44.3173 76.5744 41.1217 76.5742 38.2285C76.5742 34.848 79.311 31.9552 83.2041 31.9551ZM138.252 44.3105H136.958V27.5791H138.252V44.3105ZM106.82 25.752C106.027 26.2155 105.789 26.4979 105.688 27.4014L105.682 42.043C105.682 43.0457 105.859 43.2015 106.7 43.2803C107.139 43.3323 107.576 43.3552 108.009 43.4072L107.062 43.9766H102.55C103.141 43.2025 103.243 43.1247 103.243 42.6094V42.0332L103.233 26.6836H101.241L103.159 25.752H106.82ZM68.918 32.7627C68.0707 32.7627 67.2297 33.0956 66.6152 33.6387C65.6141 34.5421 65.4356 35.6773 65.4355 36.791C65.4357 39.3416 66.6918 43.5488 69.7891 43.5488C70.7879 43.5488 71.8084 43.0597 72.3994 42.2354C73.0138 41.4093 73.1669 40.3772 73.167 39.3721C73.1669 37.0984 72.0896 32.7627 68.918 32.7627ZM82.54 32.7578C81.6958 32.7579 80.8453 33.0907 80.2324 33.6338C79.2331 34.5372 79.0547 35.6725 79.0547 36.7861C79.0549 39.3367 80.3049 43.5427 83.4072 43.543C84.4085 43.543 85.431 43.054 86.0205 42.2295C86.6392 41.4035 86.789 40.3721 86.7891 39.3672C86.7891 37.0936 85.7149 32.7578 82.54 32.7578ZM129.597 33.0732C127.929 33.0732 126.333 34.395 125.64 35.5479V40.9043C126.333 42.0594 127.929 43.4297 129.597 43.4297C132.283 43.4297 133.798 41.1746 133.798 38.2393C133.798 35.3086 132.283 33.0732 129.597 33.0732ZM145.702 38.3701C144.543 38.3701 143.583 38.6287 142.828 39.1504C142.072 39.6705 141.69 40.3003 141.689 41.0322C141.689 41.723 141.932 42.2759 142.414 42.6943C142.898 43.1174 143.56 43.3271 144.403 43.3271C145.503 43.3271 146.294 43.0791 147.102 42.5889C147.904 42.1016 148.45 41.4658 148.736 40.6963V38.3701H145.702ZM95.0273 33.1377C94.3637 33.1377 93.6445 33.473 93.2363 33.9922C92.8033 34.53 92.6729 35.2286 92.6729 35.8994C92.6731 37.6284 93.6733 40.495 95.8721 40.4951C96.5137 40.4951 97.2042 40.1808 97.6094 39.7725C98.2009 39.1767 98.2529 38.3532 98.2529 37.8857C98.2529 36.0291 97.1551 33.1379 95.0273 33.1377ZM112.838 32.7988C111.815 32.7988 109.896 33.6024 109.896 36.3916C109.896 36.8268 109.947 37.2905 109.973 37.7539L114.633 35.7139C115.121 35.535 115.375 35.3807 115.375 35.0215C115.375 33.9903 114.219 32.7989 112.838 32.7988Z" fill="white"/>
<path d="M49.0103 9.51172C50.619 9.51172 51.6703 10.2797 52.3267 11.2197L51.1509 11.9004C50.7056 11.2813 49.9254 10.7998 49.0103 10.7998C47.3778 10.8 46.1646 12.0367 46.1646 13.7812C46.1646 15.5004 47.3778 16.7625 49.0103 16.7627C49.8521 16.7627 50.5943 16.3792 50.9653 16.0205V14.7461H48.4907V13.4717H52.4009V16.5527C51.5969 17.4563 50.4334 18.0625 49.0103 18.0625C46.6093 18.0623 44.6792 16.3678 44.6792 13.7812C44.6793 11.1832 46.6093 9.51192 49.0103 9.51172ZM91.1528 9.51172C93.6142 9.51172 95.3725 11.3183 95.3726 13.7812C95.3726 16.2435 93.6143 18.0498 91.1528 18.0498C88.6768 18.0497 86.9331 16.2434 86.9331 13.7812C86.9332 11.3184 88.6768 9.51181 91.1528 9.51172ZM102.767 15.3672V9.65039H104.215V17.9043H102.817L98.5103 12.002V17.9043H97.063V9.65039H98.5483L102.767 15.3672ZM59.8472 10.9238H55.6392V13.0518H59.7612V14.3262H55.6392V16.6279H59.8472V17.9023H54.1929V9.64844H59.8472V10.9238ZM67.7993 10.9238H65.3003V17.9023H63.8521V10.9238H61.353V9.64844H67.7993V10.9238ZM74.2788 17.9023H72.8315V9.64844H74.2788V17.9023ZM82.2593 10.9238H79.7603V17.9023H78.312V10.9238H75.813V9.64844H82.2593V10.9238ZM91.1528 10.7998C89.4816 10.7998 88.4176 12.0737 88.4175 13.7812C88.4175 15.4758 89.4815 16.7637 91.1528 16.7637C92.8102 16.7636 93.8872 15.4758 93.8872 13.7812C93.8871 12.0737 92.8101 10.7999 91.1528 10.7998Z" fill="white"/>
</g>
<defs>
<linearGradient id="paint0_linear_1998_30118" x1="14.0806" y1="24.1895" x2="14.0806" y2="50.9527" gradientUnits="userSpaceOnUse">
<stop stop-color="#1E79AF"/>
<stop offset="1" stop-color="#63FFD3"/>
</linearGradient>
<linearGradient id="paint1_linear_1998_30118" x1="22.4901" y1="34.1625" x2="12.2376" y2="47.9065" gradientUnits="userSpaceOnUse">
<stop stop-color="#DC4057"/>
<stop offset="1" stop-color="#9E36BB"/>
</linearGradient>
<linearGradient id="paint2_linear_1998_30118" x1="28.2652" y1="33.3711" x2="28.2652" y2="41.5876" gradientUnits="userSpaceOnUse">
<stop stop-color="#FF9676"/>
<stop offset="1" stop-color="#FFD074"/>
</linearGradient>
<linearGradient id="paint3_linear_1998_30118" x1="9.22392" y1="29.6802" x2="19.4448" y2="45.7432" gradientUnits="userSpaceOnUse">
<stop stop-color="#51C6AD"/>
<stop offset="1" stop-color="#D5FFA1"/>
</linearGradient>
<clipPath id="clip0_1998_30118">
<rect width="174.759" height="59.2931" fill="white" transform="translate(0.741699)"/>
</clipPath>
<clipPath id="clip1_1998_30118">
<rect width="24.9655" height="26.8379" fill="white" transform="translate(13.7991 24.373)"/>
</clipPath>
</defs>
</svg>
