<svg width="36" height="36" viewBox="0 0 36 36" fill="none" xmlns="http://www.w3.org/2000/svg">
<rect width="36" height="36" rx="18" fill="#E0F2FF"/>
<path d="M20.5509 27.9925C24.72 26.9331 27.8747 23.3322 28.2703 18.9362H23.6006C23.4263 22.2616 22.3294 25.3553 20.5509 27.9925ZM28.2703 17.0612C27.8747 12.6644 24.7172 9.0625 20.5472 8.00313C22.3266 10.6412 23.4253 13.735 23.6006 17.0612H28.2703ZM15.4538 8.00313C11.2819 9.0625 8.12626 12.6644 7.72876 17.0612H12.3994C12.5747 13.735 13.6734 10.6412 15.4538 8.00313ZM7.7297 18.9362C7.92441 21.0579 8.77088 23.0673 10.153 24.6887C11.5351 26.3102 13.385 27.4642 15.4491 27.9925C13.6706 25.3553 12.5738 22.2616 12.3994 18.9362H7.7297ZM18 28.2756C15.8372 25.6647 14.4825 22.4434 14.2781 18.9362H21.7228C21.5166 22.4425 20.1628 25.6647 18.0009 28.2756M18 7.72656C20.1628 10.3366 21.5156 13.5569 21.7219 17.0612H14.2781C14.4844 13.5569 15.8381 10.3366 18 7.72656Z" fill="#3498DB"/>
</svg>
