<svg width="60" height="60" viewBox="0 0 60 60" fill="none" xmlns="http://www.w3.org/2000/svg">
<rect width="60" height="60" rx="30" fill="#FEE5B4"/>
<path d="M30 35C29.3125 35 28.7242 34.7554 28.235 34.2663C27.7458 33.7771 27.5008 33.1883 27.5 32.5C27.4992 31.8117 27.7442 31.2233 28.235 30.735C28.7258 30.2467 29.3142 30.0017 30 30C30.6858 29.9983 31.2746 30.2433 31.7663 30.735C32.2579 31.2267 32.5025 31.815 32.5 32.5C32.4975 33.185 32.2529 33.7738 31.7663 34.2663C31.2796 34.7588 30.6908 35.0033 30 35ZM24.2188 23.75H35.7812L38.2812 18.75H21.7188L24.2188 23.75ZM25.5 41.25H34.5C36.375 41.25 37.9688 40.5992 39.2812 39.2975C40.5937 37.9958 41.25 36.3967 41.25 34.5C41.25 33.7083 41.1146 32.9375 40.8438 32.1875C40.5729 31.4375 40.1875 30.7604 39.6875 30.1562L36.4375 26.25H23.5625L20.3125 30.1562C19.8125 30.7604 19.4271 31.4375 19.1563 32.1875C18.8854 32.9375 18.75 33.7083 18.75 34.5C18.75 36.3958 19.4013 37.995 20.7038 39.2975C22.0063 40.6 23.605 41.2508 25.5 41.25Z" fill="#865900"/>
</svg>
