<svg width="60" height="60" viewBox="0 0 60 60" fill="none" xmlns="http://www.w3.org/2000/svg">
<rect width="60" height="60" rx="30" fill="#FFE9E8"/>
<path d="M28.0625 34.375C28.5833 34.8958 29.2396 35.1408 30.0312 35.11C30.8229 35.0792 31.3958 34.7925 31.75 34.25L37.0312 26.3438C37.2188 26.0521 37.1929 25.7863 36.9538 25.5463C36.7146 25.3063 36.4487 25.2804 36.1562 25.4688L28.25 30.75C27.7083 31.125 27.4117 31.6929 27.36 32.4538C27.3083 33.2146 27.5425 33.855 28.0625 34.375ZM21.375 40C20.9167 40 20.495 39.9008 20.11 39.7025C19.725 39.5042 19.4175 39.2075 19.1875 38.8125C18.6458 37.8333 18.2292 36.8179 17.9375 35.7663C17.6458 34.7146 17.5 33.6258 17.5 32.5C17.5 30.7708 17.8283 29.1458 18.485 27.625C19.1417 26.1042 20.0321 24.7812 21.1563 23.6563C22.2804 22.5313 23.6033 21.6408 25.125 20.985C26.6467 20.3292 28.2717 20.0008 30 20C31.7083 20 33.3125 20.3229 34.8125 20.9688C36.3125 21.6146 37.625 22.495 38.75 23.61C39.875 24.725 40.7708 26.0271 41.4375 27.5162C42.1042 29.0054 42.4479 30.6042 42.4688 32.3125C42.4896 33.4583 42.3596 34.5783 42.0788 35.6725C41.7979 36.7667 41.3654 37.8133 40.7812 38.8125C40.5521 39.2083 40.245 39.5054 39.86 39.7038C39.475 39.9021 39.0525 40.0008 38.5925 40H21.375Z" fill="#940101"/>
</svg>
