<svg width="60" height="60" viewBox="0 0 60 60" fill="none" xmlns="http://www.w3.org/2000/svg">
<rect width="60" height="60" rx="30" fill="#E4FFCD"/>
<path d="M33.75 21.75C33.75 22.7446 33.3549 23.6984 32.6517 24.4017C31.9484 25.1049 30.9946 25.5 30 25.5C29.0054 25.5 28.0516 25.1049 27.3483 24.4017C26.6451 23.6984 26.25 22.7446 26.25 21.75C26.25 20.7554 26.6451 19.8016 27.3483 19.0983C28.0516 18.3951 29.0054 18 30 18C30.9946 18 31.9484 18.3951 32.6517 19.0983C33.3549 19.8016 33.75 20.7554 33.75 21.75ZM41.25 22.5C41.25 23.2956 40.9339 24.0587 40.3713 24.6213C39.8087 25.1839 39.0456 25.5 38.25 25.5C37.4544 25.5 36.6913 25.1839 36.1287 24.6213C35.5661 24.0587 35.25 23.2956 35.25 22.5C35.25 21.7044 35.5661 20.9413 36.1287 20.3787C36.6913 19.8161 37.4544 19.5 38.25 19.5C39.0456 19.5 39.8087 19.8161 40.3713 20.3787C40.9339 20.9413 41.25 21.7044 41.25 22.5ZM21.75 25.5C22.5456 25.5 23.3087 25.1839 23.8713 24.6213C24.4339 24.0587 24.75 23.2956 24.75 22.5C24.75 21.7044 24.4339 20.9413 23.8713 20.3787C23.3087 19.8161 22.5456 19.5 21.75 19.5C20.9544 19.5 20.1913 19.8161 19.6287 20.3787C19.0661 20.9413 18.75 21.7044 18.75 22.5C18.75 23.2956 19.0661 24.0587 19.6287 24.6213C20.1913 25.1839 20.9544 25.5 21.75 25.5ZM24 28.875C24 27.84 24.84 27 25.875 27H34.125C35.16 27 36 27.84 36 28.875V36C36 37.5913 35.3679 39.1174 34.2426 40.2426C33.1174 41.3679 31.5913 42 30 42C28.4087 42 26.8826 41.3679 25.7574 40.2426C24.6321 39.1174 24 37.5913 24 36V28.875ZM22.5 28.875C22.5 28.1805 22.71 27.537 23.0685 27H19.875C18.84 27 18 27.84 18 28.875V34.5C17.9999 35.1422 18.1373 35.7769 18.4029 36.3616C18.6685 36.9463 19.0562 37.4674 19.5398 37.8898C20.0235 38.3122 20.592 38.6263 21.2071 38.8108C21.8222 38.9953 22.4697 39.046 23.106 38.9595C22.7054 38.0243 22.4992 37.0174 22.5 36V28.875ZM37.5 36C37.5 37.05 37.284 38.052 36.894 38.9595C37.092 38.9865 37.294 39 37.5 39C38.6935 39 39.8381 38.5259 40.682 37.682C41.5259 36.8381 42 35.6935 42 34.5V28.875C42 27.84 41.16 27 40.125 27H36.9315C37.2915 27.537 37.5 28.1805 37.5 28.875V36Z" fill="#418C00"/>
</svg>
